<?xml version="1.0" encoding="utf-8" standalone="no"?>
<!DOCTYPE svg PUBLIC "-//W3C//DTD SVG 1.1//EN"
  "http://www.w3.org/Graphics/SVG/1.1/DTD/svg11.dtd">
<svg xmlns:xlink="http://www.w3.org/1999/xlink" width="130.393701pt" height="99.212598pt" viewBox="0 0 130.393701 99.212598" xmlns="http://www.w3.org/2000/svg" version="1.1">
 <metadata>
  <rdf:RDF xmlns:dc="http://purl.org/dc/elements/1.1/" xmlns:cc="http://creativecommons.org/ns#" xmlns:rdf="http://www.w3.org/1999/02/22-rdf-syntax-ns#">
   <cc:Work>
    <dc:type rdf:resource="http://purl.org/dc/dcmitype/StillImage"/>
    <dc:date>2024-07-09T09:07:20.504276</dc:date>
    <dc:format>image/svg+xml</dc:format>
    <dc:creator>
     <cc:Agent>
      <dc:title>Matplotlib v3.8.2, https://matplotlib.org/</dc:title>
     </cc:Agent>
    </dc:creator>
   </cc:Work>
  </rdf:RDF>
 </metadata>
 <defs>
  <style type="text/css">*{stroke-linejoin: round; stroke-linecap: butt}</style>
 </defs>
 <g id="figure_1">
  <g id="patch_1">
   <path d="M 0 99.212598 
L 130.393701 99.212598 
L 130.393701 0 
L 0 0 
z
" style="fill: #ffffff"/>
  </g>
  <g id="axes_1">
   <g id="patch_2">
    <path d="M 60.23 57.252598 
L 119.593701 57.252598 
L 119.593701 13.66492 
L 60.23 13.66492 
z
" style="fill: #ffffff"/>
   </g>
   <g id="matplotlib.axis_1">
    <g id="xtick_1">
     <g id="line2d_1">
      <defs>
       <path id="m1b7b3994d2" d="M 0 0 
L 0 3.5 
" style="stroke: #000000; stroke-width: 0.8"/>
      </defs>
      <g>
       <use xlink:href="#m1b7b3994d2" x="62.92835" y="57.252598" style="stroke: #000000; stroke-width: 0.8"/>
      </g>
     </g>
     <g id="text_1">
      <!-- 0 -->
      <g transform="translate(59.7471 71.851036) scale(0.1 -0.1)">
       <defs>
        <path id="DejaVuSans-30" d="M 2034 4250 
Q 1547 4250 1301 3770 
Q 1056 3291 1056 2328 
Q 1056 1369 1301 889 
Q 1547 409 2034 409 
Q 2525 409 2770 889 
Q 3016 1369 3016 2328 
Q 3016 3291 2770 3770 
Q 2525 4250 2034 4250 
z
M 2034 4750 
Q 2819 4750 3233 4129 
Q 3647 3509 3647 2328 
Q 3647 1150 3233 529 
Q 2819 -91 2034 -91 
Q 1250 -91 836 529 
Q 422 1150 422 2328 
Q 422 3509 836 4129 
Q 1250 4750 2034 4750 
z
" transform="scale(0.015625)"/>
       </defs>
       <use xlink:href="#DejaVuSans-30"/>
      </g>
     </g>
    </g>
    <g id="xtick_2">
     <g id="line2d_2">
      <g>
       <use xlink:href="#m1b7b3994d2" x="117.996718" y="57.252598" style="stroke: #000000; stroke-width: 0.8"/>
      </g>
     </g>
     <g id="text_2">
      <!-- 50 -->
      <g transform="translate(111.634218 71.851036) scale(0.1 -0.1)">
       <defs>
        <path id="DejaVuSans-35" d="M 691 4666 
L 3169 4666 
L 3169 4134 
L 1269 4134 
L 1269 2991 
Q 1406 3038 1543 3061 
Q 1681 3084 1819 3084 
Q 2600 3084 3056 2656 
Q 3513 2228 3513 1497 
Q 3513 744 3044 326 
Q 2575 -91 1722 -91 
Q 1428 -91 1123 -41 
Q 819 9 494 109 
L 494 744 
Q 775 591 1075 516 
Q 1375 441 1709 441 
Q 2250 441 2565 725 
Q 2881 1009 2881 1497 
Q 2881 1984 2565 2268 
Q 2250 2553 1709 2553 
Q 1456 2553 1204 2497 
Q 953 2441 691 2322 
L 691 4666 
z
" transform="scale(0.015625)"/>
       </defs>
       <use xlink:href="#DejaVuSans-35"/>
       <use xlink:href="#DejaVuSans-30" x="63.623047"/>
      </g>
     </g>
    </g>
    <g id="text_3">
     <!-- Time [a.u.] -->
     <g transform="translate(62.776694 85.529161) scale(0.1 -0.1)">
      <defs>
       <path id="DejaVuSans-54" d="M -19 4666 
L 3928 4666 
L 3928 4134 
L 2272 4134 
L 2272 0 
L 1638 0 
L 1638 4134 
L -19 4134 
L -19 4666 
z
" transform="scale(0.015625)"/>
       <path id="DejaVuSans-69" d="M 603 3500 
L 1178 3500 
L 1178 0 
L 603 0 
L 603 3500 
z
M 603 4863 
L 1178 4863 
L 1178 4134 
L 603 4134 
L 603 4863 
z
" transform="scale(0.015625)"/>
       <path id="DejaVuSans-6d" d="M 3328 2828 
Q 3544 3216 3844 3400 
Q 4144 3584 4550 3584 
Q 5097 3584 5394 3201 
Q 5691 2819 5691 2113 
L 5691 0 
L 5113 0 
L 5113 2094 
Q 5113 2597 4934 2840 
Q 4756 3084 4391 3084 
Q 3944 3084 3684 2787 
Q 3425 2491 3425 1978 
L 3425 0 
L 2847 0 
L 2847 2094 
Q 2847 2600 2669 2842 
Q 2491 3084 2119 3084 
Q 1678 3084 1418 2786 
Q 1159 2488 1159 1978 
L 1159 0 
L 581 0 
L 581 3500 
L 1159 3500 
L 1159 2956 
Q 1356 3278 1631 3431 
Q 1906 3584 2284 3584 
Q 2666 3584 2933 3390 
Q 3200 3197 3328 2828 
z
" transform="scale(0.015625)"/>
       <path id="DejaVuSans-65" d="M 3597 1894 
L 3597 1613 
L 953 1613 
Q 991 1019 1311 708 
Q 1631 397 2203 397 
Q 2534 397 2845 478 
Q 3156 559 3463 722 
L 3463 178 
Q 3153 47 2828 -22 
Q 2503 -91 2169 -91 
Q 1331 -91 842 396 
Q 353 884 353 1716 
Q 353 2575 817 3079 
Q 1281 3584 2069 3584 
Q 2775 3584 3186 3129 
Q 3597 2675 3597 1894 
z
M 3022 2063 
Q 3016 2534 2758 2815 
Q 2500 3097 2075 3097 
Q 1594 3097 1305 2825 
Q 1016 2553 972 2059 
L 3022 2063 
z
" transform="scale(0.015625)"/>
       <path id="DejaVuSans-20" transform="scale(0.015625)"/>
       <path id="DejaVuSans-5b" d="M 550 4863 
L 1875 4863 
L 1875 4416 
L 1125 4416 
L 1125 -397 
L 1875 -397 
L 1875 -844 
L 550 -844 
L 550 4863 
z
" transform="scale(0.015625)"/>
       <path id="DejaVuSans-61" d="M 2194 1759 
Q 1497 1759 1228 1600 
Q 959 1441 959 1056 
Q 959 750 1161 570 
Q 1363 391 1709 391 
Q 2188 391 2477 730 
Q 2766 1069 2766 1631 
L 2766 1759 
L 2194 1759 
z
M 3341 1997 
L 3341 0 
L 2766 0 
L 2766 531 
Q 2569 213 2275 61 
Q 1981 -91 1556 -91 
Q 1019 -91 701 211 
Q 384 513 384 1019 
Q 384 1609 779 1909 
Q 1175 2209 1959 2209 
L 2766 2209 
L 2766 2266 
Q 2766 2663 2505 2880 
Q 2244 3097 1772 3097 
Q 1472 3097 1187 3025 
Q 903 2953 641 2809 
L 641 3341 
Q 956 3463 1253 3523 
Q 1550 3584 1831 3584 
Q 2591 3584 2966 3190 
Q 3341 2797 3341 1997 
z
" transform="scale(0.015625)"/>
       <path id="DejaVuSans-2e" d="M 684 794 
L 1344 794 
L 1344 0 
L 684 0 
L 684 794 
z
" transform="scale(0.015625)"/>
       <path id="DejaVuSans-75" d="M 544 1381 
L 544 3500 
L 1119 3500 
L 1119 1403 
Q 1119 906 1312 657 
Q 1506 409 1894 409 
Q 2359 409 2629 706 
Q 2900 1003 2900 1516 
L 2900 3500 
L 3475 3500 
L 3475 0 
L 2900 0 
L 2900 538 
Q 2691 219 2414 64 
Q 2138 -91 1772 -91 
Q 1169 -91 856 284 
Q 544 659 544 1381 
z
M 1991 3584 
L 1991 3584 
z
" transform="scale(0.015625)"/>
       <path id="DejaVuSans-5d" d="M 1947 4863 
L 1947 -844 
L 622 -844 
L 622 -397 
L 1369 -397 
L 1369 4416 
L 622 4416 
L 622 4863 
L 1947 4863 
z
" transform="scale(0.015625)"/>
      </defs>
      <use xlink:href="#DejaVuSans-54"/>
      <use xlink:href="#DejaVuSans-69" x="57.958984"/>
      <use xlink:href="#DejaVuSans-6d" x="85.742188"/>
      <use xlink:href="#DejaVuSans-65" x="183.154297"/>
      <use xlink:href="#DejaVuSans-20" x="244.677734"/>
      <use xlink:href="#DejaVuSans-5b" x="276.464844"/>
      <use xlink:href="#DejaVuSans-61" x="315.478516"/>
      <use xlink:href="#DejaVuSans-2e" x="376.757812"/>
      <use xlink:href="#DejaVuSans-75" x="408.544922"/>
      <use xlink:href="#DejaVuSans-2e" x="471.923828"/>
      <use xlink:href="#DejaVuSans-5d" x="503.710938"/>
     </g>
    </g>
   </g>
   <g id="matplotlib.axis_2">
    <g id="ytick_1">
     <g id="line2d_3">
      <defs>
       <path id="m3434b8370c" d="M 0 0 
L -3.5 0 
" style="stroke: #000000; stroke-width: 0.8"/>
      </defs>
      <g>
       <use xlink:href="#m3434b8370c" x="60.23" y="43.277795" style="stroke: #000000; stroke-width: 0.8"/>
      </g>
     </g>
     <g id="text_4">
      <!-- 0.025 -->
      <g transform="translate(24.601875 47.077014) scale(0.1 -0.1)">
       <defs>
        <path id="DejaVuSans-32" d="M 1228 531 
L 3431 531 
L 3431 0 
L 469 0 
L 469 531 
Q 828 903 1448 1529 
Q 2069 2156 2228 2338 
Q 2531 2678 2651 2914 
Q 2772 3150 2772 3378 
Q 2772 3750 2511 3984 
Q 2250 4219 1831 4219 
Q 1534 4219 1204 4116 
Q 875 4013 500 3803 
L 500 4441 
Q 881 4594 1212 4672 
Q 1544 4750 1819 4750 
Q 2544 4750 2975 4387 
Q 3406 4025 3406 3419 
Q 3406 3131 3298 2873 
Q 3191 2616 2906 2266 
Q 2828 2175 2409 1742 
Q 1991 1309 1228 531 
z
" transform="scale(0.015625)"/>
       </defs>
       <use xlink:href="#DejaVuSans-30"/>
       <use xlink:href="#DejaVuSans-2e" x="63.623047"/>
       <use xlink:href="#DejaVuSans-30" x="95.410156"/>
       <use xlink:href="#DejaVuSans-32" x="159.033203"/>
       <use xlink:href="#DejaVuSans-35" x="222.65625"/>
      </g>
     </g>
    </g>
    <g id="ytick_2">
     <g id="line2d_4">
      <g>
       <use xlink:href="#m3434b8370c" x="60.23" y="28.783765" style="stroke: #000000; stroke-width: 0.8"/>
      </g>
     </g>
     <g id="text_5">
      <!-- 0.050 -->
      <g transform="translate(24.601875 32.582984) scale(0.1 -0.1)">
       <use xlink:href="#DejaVuSans-30"/>
       <use xlink:href="#DejaVuSans-2e" x="63.623047"/>
       <use xlink:href="#DejaVuSans-30" x="95.410156"/>
       <use xlink:href="#DejaVuSans-35" x="159.033203"/>
       <use xlink:href="#DejaVuSans-30" x="222.65625"/>
      </g>
     </g>
    </g>
    <g id="ytick_3">
     <g id="line2d_5">
      <g>
       <use xlink:href="#m3434b8370c" x="60.23" y="14.289736" style="stroke: #000000; stroke-width: 0.8"/>
      </g>
     </g>
     <g id="text_6">
      <!-- 0.075 -->
      <g transform="translate(24.601875 18.088955) scale(0.1 -0.1)">
       <defs>
        <path id="DejaVuSans-37" d="M 525 4666 
L 3525 4666 
L 3525 4397 
L 1831 0 
L 1172 0 
L 2766 4134 
L 525 4134 
L 525 4666 
z
" transform="scale(0.015625)"/>
       </defs>
       <use xlink:href="#DejaVuSans-30"/>
       <use xlink:href="#DejaVuSans-2e" x="63.623047"/>
       <use xlink:href="#DejaVuSans-30" x="95.410156"/>
       <use xlink:href="#DejaVuSans-37" x="159.033203"/>
       <use xlink:href="#DejaVuSans-35" x="222.65625"/>
      </g>
     </g>
    </g>
    <g id="text_7">
     <!-- Rate [a.u.] -->
     <g transform="translate(18.522187 61.822822) rotate(-90) scale(0.1 -0.1)">
      <defs>
       <path id="DejaVuSans-52" d="M 2841 2188 
Q 3044 2119 3236 1894 
Q 3428 1669 3622 1275 
L 4263 0 
L 3584 0 
L 2988 1197 
Q 2756 1666 2539 1819 
Q 2322 1972 1947 1972 
L 1259 1972 
L 1259 0 
L 628 0 
L 628 4666 
L 2053 4666 
Q 2853 4666 3247 4331 
Q 3641 3997 3641 3322 
Q 3641 2881 3436 2590 
Q 3231 2300 2841 2188 
z
M 1259 4147 
L 1259 2491 
L 2053 2491 
Q 2509 2491 2742 2702 
Q 2975 2913 2975 3322 
Q 2975 3731 2742 3939 
Q 2509 4147 2053 4147 
L 1259 4147 
z
" transform="scale(0.015625)"/>
       <path id="DejaVuSans-74" d="M 1172 4494 
L 1172 3500 
L 2356 3500 
L 2356 3053 
L 1172 3053 
L 1172 1153 
Q 1172 725 1289 603 
Q 1406 481 1766 481 
L 2356 481 
L 2356 0 
L 1766 0 
Q 1100 0 847 248 
Q 594 497 594 1153 
L 594 3053 
L 172 3053 
L 172 3500 
L 594 3500 
L 594 4494 
L 1172 4494 
z
" transform="scale(0.015625)"/>
      </defs>
      <use xlink:href="#DejaVuSans-52"/>
      <use xlink:href="#DejaVuSans-61" x="67.232422"/>
      <use xlink:href="#DejaVuSans-74" x="128.511719"/>
      <use xlink:href="#DejaVuSans-65" x="167.720703"/>
      <use xlink:href="#DejaVuSans-20" x="229.244141"/>
      <use xlink:href="#DejaVuSans-5b" x="261.03125"/>
      <use xlink:href="#DejaVuSans-61" x="300.044922"/>
      <use xlink:href="#DejaVuSans-2e" x="361.324219"/>
      <use xlink:href="#DejaVuSans-75" x="393.111328"/>
      <use xlink:href="#DejaVuSans-2e" x="456.490234"/>
      <use xlink:href="#DejaVuSans-5d" x="488.277344"/>
     </g>
    </g>
   </g>
   <g id="line2d_6">
    <path d="M 62.92835 44.376952 
L 64.029717 49.218563 
L 65.131085 48.517228 
L 66.232452 48.169204 
L 67.333819 48.016975 
L 68.435187 47.624677 
L 69.536554 47.370844 
L 70.637922 47.543286 
L 71.739289 47.354286 
L 72.840656 47.035355 
L 73.942024 46.867615 
L 75.043391 46.411931 
L 76.144758 45.640054 
L 77.246126 45.567108 
L 78.347493 45.751281 
L 79.44886 45.50761 
L 80.550228 45.163477 
L 81.651595 45.374986 
L 82.752963 44.612923 
L 83.85433 44.378789 
L 84.955697 44.674132 
L 86.057065 44.595337 
L 87.158432 44.303568 
L 88.259799 44.6321 
L 89.361167 44.728818 
L 90.462534 44.647203 
L 91.563901 44.44252 
L 92.665269 44.624922 
L 93.766636 44.669265 
L 94.868004 45.0258 
L 95.969371 44.979576 
L 97.070738 45.02201 
L 98.172106 45.778031 
L 99.273473 45.488647 
L 100.37484 45.410575 
L 101.476208 45.902873 
L 102.577575 45.833741 
L 103.678942 46.044001 
L 104.78031 46.294929 
L 105.881677 46.395924 
L 106.983044 46.700901 
L 108.084412 46.674154 
L 109.185779 46.890752 
L 110.287147 47.276338 
L 111.388514 46.721674 
L 112.489881 47.336232 
L 113.591249 47.599621 
L 114.692616 47.595414 
L 115.793983 48.612761 
L 116.895351 49.425084 
" clip-path="url(#pfbf495f6bc)" style="fill: none; stroke: #e41a1c; stroke-width: 1.5; stroke-linecap: square"/>
   </g>
   <g id="line2d_7">
    <path d="M 62.92835 44.947489 
L 64.029717 29.870927 
L 65.131085 19.857728 
L 66.232452 15.646178 
L 67.333819 17.501291 
L 68.435187 20.471891 
L 69.536554 24.627023 
L 70.637922 28.39071 
L 71.739289 31.948305 
L 72.840656 35.210917 
L 73.942024 37.820953 
L 75.043391 39.809832 
L 76.144758 41.849027 
L 77.246126 43.230525 
L 78.347493 44.496512 
L 79.44886 45.591186 
L 80.550228 46.642235 
L 81.651595 47.543116 
L 82.752963 48.269363 
L 83.85433 48.887408 
L 84.955697 49.290138 
L 86.057065 49.876133 
L 87.158432 50.275442 
L 88.259799 50.822816 
L 89.361167 51.171426 
L 90.462534 51.544244 
L 91.563901 51.777809 
L 92.665269 52.14458 
L 93.766636 52.289482 
L 94.868004 52.599228 
L 95.969371 52.755636 
L 97.070738 52.956432 
L 98.172106 53.093805 
L 99.273473 53.294446 
L 100.37484 53.55423 
L 101.476208 53.694984 
L 102.577575 53.80223 
L 103.678942 54.084094 
L 104.78031 54.167161 
L 105.881677 54.226428 
L 106.983044 54.423634 
L 108.084412 54.45473 
L 109.185779 54.713349 
L 110.287147 54.787233 
L 111.388514 54.85155 
L 112.489881 54.888857 
L 113.591249 55.113924 
L 114.692616 55.135295 
L 115.793983 55.27134 
L 116.895351 55.156771 
" clip-path="url(#pfbf495f6bc)" style="fill: none; stroke: #377eb8; stroke-width: 1.5; stroke-linecap: square"/>
   </g>
   <g id="line2d_8">
    <path d="M 62.92835 49.975651 
L 64.029717 50.534661 
L 65.131085 47.641762 
L 66.232452 45.275622 
L 67.333819 42.394923 
L 68.435187 39.744451 
L 69.536554 37.637336 
L 70.637922 36.585364 
L 71.739289 35.69354 
L 72.840656 35.475709 
L 73.942024 35.623885 
L 75.043391 35.822157 
L 76.144758 36.436147 
L 77.246126 37.215028 
L 78.347493 37.751971 
L 79.44886 38.455374 
L 80.550228 40.121297 
L 81.651595 41.073396 
L 82.752963 41.619487 
L 83.85433 41.930591 
L 84.955697 42.760298 
L 86.057065 43.473608 
L 87.158432 44.360792 
L 88.259799 45.033922 
L 89.361167 46.276733 
L 90.462534 46.119961 
L 91.563901 47.215608 
L 92.665269 47.809059 
L 93.766636 48.402382 
L 94.868004 48.997333 
L 95.969371 49.107341 
L 97.070738 49.705438 
L 98.172106 50.124787 
L 99.273473 50.398911 
L 100.37484 50.964571 
L 101.476208 51.376 
L 102.577575 51.562784 
L 103.678942 51.988604 
L 104.78031 51.915081 
L 105.881677 52.128134 
L 106.983044 52.41643 
L 108.084412 52.813483 
L 109.185779 52.847108 
L 110.287147 52.920705 
L 111.388514 53.050395 
L 112.489881 52.816036 
L 113.591249 53.517384 
L 114.692616 53.66385 
L 115.793983 53.832658 
L 116.895351 54.222296 
" clip-path="url(#pfbf495f6bc)" style="fill: none; stroke: #4daf4a; stroke-width: 1.5; stroke-linecap: square"/>
   </g>
   <g id="patch_3">
    <path d="M 60.23 57.252598 
L 60.23 13.66492 
" style="fill: none; stroke: #000000; stroke-width: 0.8; stroke-linejoin: miter; stroke-linecap: square"/>
   </g>
   <g id="patch_4">
    <path d="M 60.23 57.252598 
L 119.593701 57.252598 
" style="fill: none; stroke: #000000; stroke-width: 0.8; stroke-linejoin: miter; stroke-linecap: square"/>
   </g>
  </g>
 </g>
 <defs>
  <clipPath id="pfbf495f6bc">
   <rect x="60.23" y="13.66492" width="59.363701" height="43.587679"/>
  </clipPath>
 </defs>
</svg>
