<?xml version="1.0" encoding="utf-8" standalone="no"?>
<!DOCTYPE svg PUBLIC "-//W3C//DTD SVG 1.1//EN"
  "http://www.w3.org/Graphics/SVG/1.1/DTD/svg11.dtd">
<svg xmlns:xlink="http://www.w3.org/1999/xlink" width="130.393701pt" height="198.425197pt" viewBox="0 0 130.393701 198.425197" xmlns="http://www.w3.org/2000/svg" version="1.1">
 <metadata>
  <rdf:RDF xmlns:dc="http://purl.org/dc/elements/1.1/" xmlns:cc="http://creativecommons.org/ns#" xmlns:rdf="http://www.w3.org/1999/02/22-rdf-syntax-ns#">
   <cc:Work>
    <dc:type rdf:resource="http://purl.org/dc/dcmitype/StillImage"/>
    <dc:date>2024-07-09T15:33:18.033122</dc:date>
    <dc:format>image/svg+xml</dc:format>
    <dc:creator>
     <cc:Agent>
      <dc:title>Matplotlib v3.8.2, https://matplotlib.org/</dc:title>
     </cc:Agent>
    </dc:creator>
   </cc:Work>
  </rdf:RDF>
 </metadata>
 <defs>
  <style type="text/css">*{stroke-linejoin: round; stroke-linecap: butt}</style>
 </defs>
 <g id="figure_1">
  <g id="patch_1">
   <path d="M 0 198.425197 
L 130.393701 198.425197 
L 130.393701 0 
L 0 0 
z
" style="fill: #ffffff"/>
  </g>
  <g id="axes_1">
   <g id="patch_2">
    <path d="M 45.94399 41.903992 
L 127.393461 41.903992 
L 127.393461 3.00024 
L 45.94399 3.00024 
z
" style="fill: #ffffff"/>
   </g>
   <g id="matplotlib.axis_1">
    <g id="xtick_1">
     <g id="line2d_1">
      <defs>
       <path id="m813ca7adbc" d="M 0 0 
L 0 3.5 
" style="stroke: #000000; stroke-width: 0.8"/>
      </defs>
      <g>
       <use xlink:href="#m813ca7adbc" x="63.119796" y="41.903992" style="stroke: #000000; stroke-width: 0.8"/>
      </g>
     </g>
     <g id="text_1">
      <!-- 0 -->
      <g transform="translate(59.938546 56.50243) scale(0.1 -0.1)">
       <defs>
        <path id="DejaVuSans-30" d="M 2034 4250 
Q 1547 4250 1301 3770 
Q 1056 3291 1056 2328 
Q 1056 1369 1301 889 
Q 1547 409 2034 409 
Q 2525 409 2770 889 
Q 3016 1369 3016 2328 
Q 3016 3291 2770 3770 
Q 2525 4250 2034 4250 
z
M 2034 4750 
Q 2819 4750 3233 4129 
Q 3647 3509 3647 2328 
Q 3647 1150 3233 529 
Q 2819 -91 2034 -91 
Q 1250 -91 836 529 
Q 422 1150 422 2328 
Q 422 3509 836 4129 
Q 1250 4750 2034 4750 
z
" transform="scale(0.015625)"/>
       </defs>
       <use xlink:href="#DejaVuSans-30"/>
      </g>
     </g>
    </g>
    <g id="xtick_2">
     <g id="line2d_2">
      <g>
       <use xlink:href="#m813ca7adbc" x="117.491627" y="41.903992" style="stroke: #000000; stroke-width: 0.8"/>
      </g>
     </g>
     <g id="text_2">
      <!-- 200 -->
      <g transform="translate(107.947877 56.50243) scale(0.1 -0.1)">
       <defs>
        <path id="DejaVuSans-32" d="M 1228 531 
L 3431 531 
L 3431 0 
L 469 0 
L 469 531 
Q 828 903 1448 1529 
Q 2069 2156 2228 2338 
Q 2531 2678 2651 2914 
Q 2772 3150 2772 3378 
Q 2772 3750 2511 3984 
Q 2250 4219 1831 4219 
Q 1534 4219 1204 4116 
Q 875 4013 500 3803 
L 500 4441 
Q 881 4594 1212 4672 
Q 1544 4750 1819 4750 
Q 2544 4750 2975 4387 
Q 3406 4025 3406 3419 
Q 3406 3131 3298 2873 
Q 3191 2616 2906 2266 
Q 2828 2175 2409 1742 
Q 1991 1309 1228 531 
z
" transform="scale(0.015625)"/>
       </defs>
       <use xlink:href="#DejaVuSans-32"/>
       <use xlink:href="#DejaVuSans-30" x="63.623047"/>
       <use xlink:href="#DejaVuSans-30" x="127.246094"/>
      </g>
     </g>
    </g>
   </g>
   <g id="matplotlib.axis_2">
    <g id="ytick_1">
     <g id="line2d_3">
      <defs>
       <path id="m7937f4d466" d="M 0 0 
L -3.5 0 
" style="stroke: #000000; stroke-width: 0.8"/>
      </defs>
      <g>
       <use xlink:href="#m7937f4d466" x="45.94399" y="40.13564" style="stroke: #000000; stroke-width: 0.8"/>
      </g>
     </g>
     <g id="text_3">
      <!-- 0.00 -->
      <g transform="translate(16.678365 43.934859) scale(0.1 -0.1)">
       <defs>
        <path id="DejaVuSans-2e" d="M 684 794 
L 1344 794 
L 1344 0 
L 684 0 
L 684 794 
z
" transform="scale(0.015625)"/>
       </defs>
       <use xlink:href="#DejaVuSans-30"/>
       <use xlink:href="#DejaVuSans-2e" x="63.623047"/>
       <use xlink:href="#DejaVuSans-30" x="95.410156"/>
       <use xlink:href="#DejaVuSans-30" x="159.033203"/>
      </g>
     </g>
    </g>
    <g id="ytick_2">
     <g id="line2d_4">
      <g>
       <use xlink:href="#m7937f4d466" x="45.94399" y="21.441629" style="stroke: #000000; stroke-width: 0.8"/>
      </g>
     </g>
     <g id="text_4">
      <!-- 0.05 -->
      <g transform="translate(16.678365 25.240848) scale(0.1 -0.1)">
       <defs>
        <path id="DejaVuSans-35" d="M 691 4666 
L 3169 4666 
L 3169 4134 
L 1269 4134 
L 1269 2991 
Q 1406 3038 1543 3061 
Q 1681 3084 1819 3084 
Q 2600 3084 3056 2656 
Q 3513 2228 3513 1497 
Q 3513 744 3044 326 
Q 2575 -91 1722 -91 
Q 1428 -91 1123 -41 
Q 819 9 494 109 
L 494 744 
Q 775 591 1075 516 
Q 1375 441 1709 441 
Q 2250 441 2565 725 
Q 2881 1009 2881 1497 
Q 2881 1984 2565 2268 
Q 2250 2553 1709 2553 
Q 1456 2553 1204 2497 
Q 953 2441 691 2322 
L 691 4666 
z
" transform="scale(0.015625)"/>
       </defs>
       <use xlink:href="#DejaVuSans-30"/>
       <use xlink:href="#DejaVuSans-2e" x="63.623047"/>
       <use xlink:href="#DejaVuSans-30" x="95.410156"/>
       <use xlink:href="#DejaVuSans-35" x="159.033203"/>
      </g>
     </g>
    </g>
   </g>
   <g id="line2d_5">
    <path d="M 49.651893 18.142686 
L 49.902004 18.142686 
L 50.152114 32.804655 
L 50.402225 40.13564 
L 50.652335 40.13564 
L 50.902445 32.804655 
L 51.152556 25.473671 
L 51.402666 32.804655 
L 51.652777 25.473671 
L 51.902887 32.804655 
L 52.152998 40.13564 
L 52.403108 40.13564 
L 52.653218 32.804655 
L 52.903329 25.473671 
L 53.153439 40.13564 
L 53.40355 40.13564 
L 53.65366 40.13564 
L 53.903771 40.13564 
L 54.153881 32.804655 
L 54.403991 32.804655 
L 54.654102 32.804655 
L 54.904212 25.473671 
L 55.154323 32.804655 
L 55.404433 25.473671 
L 55.654544 25.473671 
L 55.904654 10.811701 
L 56.154764 32.804655 
L 56.404875 40.13564 
L 56.654985 32.804655 
L 56.905096 32.804655 
L 57.155206 32.804655 
L 57.405316 40.13564 
L 57.655427 32.804655 
L 57.905537 40.13564 
L 58.155648 32.804655 
L 58.405758 40.13564 
L 58.655869 25.473671 
L 58.905979 32.804655 
L 59.156089 40.13564 
L 59.4062 32.804655 
L 59.65631 32.804655 
L 59.906421 40.13564 
L 60.156531 25.473671 
L 60.406642 40.13564 
L 60.656752 25.473671 
L 60.906862 32.804655 
L 61.156973 40.13564 
L 61.407083 32.804655 
L 61.657194 32.804655 
L 61.907304 25.473671 
" clip-path="url(#p41490cf75f)" style="fill: none; stroke: #e41a1c; stroke-linecap: square"/>
   </g>
   <g id="line2d_6">
    <path d="M 49.954418 32.707556 
L 50.809578 35.183584 
L 51.664739 35.183584 
L 52.519899 30.231528 
L 53.375059 30.231528 
L 54.230219 35.183584 
L 55.085379 35.183584 
L 55.940539 35.183584 
L 56.7957 37.659612 
L 57.65086 37.659612 
L 58.50602 30.231528 
L 59.36118 37.659612 
L 60.21634 35.183584 
L 61.0715 32.707556 
L 61.92666 30.231528 
L 62.781821 35.183584 
L 63.636981 32.707556 
L 64.492141 30.231528 
L 65.347301 35.183584 
L 66.202461 25.279472 
L 67.057621 35.183584 
L 67.912782 35.183584 
L 68.767942 32.707556 
L 69.623102 25.279472 
L 70.478262 35.183584 
L 71.333422 32.707556 
L 72.188582 32.707556 
L 73.043743 20.327417 
L 73.898903 35.183584 
L 74.754063 32.707556 
L 75.609223 40.13564 
L 76.464383 30.231528 
L 77.319543 32.707556 
L 78.174704 37.659612 
L 79.029864 32.707556 
L 79.885024 25.279472 
L 80.740184 25.279472 
L 81.595344 30.231528 
L 82.450504 37.659612 
L 83.305665 32.707556 
L 84.160825 37.659612 
L 85.015985 30.231528 
L 85.871145 30.231528 
L 86.726305 30.231528 
L 87.581465 30.231528 
L 88.436625 30.231528 
L 89.291786 35.183584 
L 90.146946 27.7555 
L 91.002106 35.183584 
L 91.857266 35.183584 
" clip-path="url(#p41490cf75f)" style="fill: none; stroke: #e41a1c; stroke-linecap: square"/>
   </g>
   <g id="line2d_7">
    <path d="M 50.275973 37.083557 
L 51.774243 35.557515 
L 53.272514 35.557515 
L 54.770784 32.505431 
L 56.269054 26.401265 
L 57.767324 29.453348 
L 59.265594 35.557515 
L 60.763864 32.505431 
L 62.262135 32.505431 
L 63.760405 35.557515 
L 65.258675 37.083557 
L 66.756945 34.031473 
L 68.255215 30.97939 
L 69.753486 35.557515 
L 71.251756 34.031473 
L 72.750026 23.349181 
L 74.248296 26.401265 
L 75.746566 29.453348 
L 77.244836 34.031473 
L 78.743107 26.401265 
L 80.241377 29.453348 
L 81.739647 27.927306 
L 83.237917 34.031473 
L 84.736187 30.97939 
L 86.234458 32.505431 
L 87.732728 30.97939 
L 89.230998 26.401265 
L 90.729268 35.557515 
L 92.227538 34.031473 
L 93.725808 30.97939 
L 95.224079 38.609598 
L 96.722349 34.031473 
L 98.220619 30.97939 
L 99.718889 34.031473 
L 101.217159 35.557515 
L 102.71543 30.97939 
L 104.2137 30.97939 
L 105.71197 32.505431 
L 107.21024 37.083557 
L 108.70851 35.557515 
L 110.20678 34.031473 
L 111.705051 29.453348 
L 113.203321 34.031473 
L 114.701591 38.609598 
L 116.199861 29.453348 
L 117.698131 32.505431 
L 119.196402 32.505431 
L 120.694672 35.557515 
L 122.192942 34.031473 
L 123.691212 35.557515 
" clip-path="url(#p41490cf75f)" style="fill: none; stroke: #e41a1c; stroke-linecap: square"/>
   </g>
   <g id="line2d_8">
    <path d="M 49.646239 30.030769 
L 49.88504 40.13564 
L 50.123841 40.13564 
L 50.362642 40.13564 
L 50.601443 30.030769 
L 50.840244 35.083205 
L 51.079045 30.030769 
L 51.317846 35.083205 
L 51.556647 40.13564 
L 51.795448 40.13564 
L 52.034249 40.13564 
L 52.273051 40.13564 
L 52.511852 35.083205 
L 52.750653 35.083205 
L 52.989454 35.083205 
L 53.228255 9.821028 
L 53.467056 19.925898 
L 53.705857 24.978334 
L 53.944658 4.768592 
L 54.183459 40.13564 
L 54.42226 24.978334 
L 54.661061 30.030769 
L 54.899862 35.083205 
L 55.138664 35.083205 
L 55.377465 24.978334 
L 55.616266 40.13564 
L 55.855067 24.978334 
L 56.093868 40.13564 
L 56.332669 30.030769 
L 56.57147 40.13564 
L 56.810271 40.13564 
L 57.049072 40.13564 
L 57.287873 40.13564 
L 57.526674 24.978334 
L 57.765475 40.13564 
L 58.004277 40.13564 
L 58.243078 35.083205 
L 58.481879 35.083205 
L 58.72068 24.978334 
L 58.959481 30.030769 
L 59.198282 35.083205 
L 59.437083 30.030769 
L 59.675884 14.873463 
L 59.914685 24.978334 
L 60.153486 40.13564 
L 60.392287 35.083205 
L 60.631088 30.030769 
L 60.86989 24.978334 
L 61.108691 35.083205 
L 61.347492 40.13564 
" clip-path="url(#p41490cf75f)" style="fill: none; stroke: #e41a1c; stroke-linecap: square"/>
   </g>
   <g id="line2d_9">
    <path d="M 49.813595 21.441629 
L 50.387109 28.919233 
L 50.960623 36.396838 
L 51.534137 28.919233 
L 52.107651 40.13564 
L 52.681166 32.658036 
L 53.25468 40.13564 
L 53.828194 32.658036 
L 54.401708 36.396838 
L 54.975222 36.396838 
L 55.548736 25.180431 
L 56.12225 40.13564 
L 56.695764 36.396838 
L 57.269278 32.658036 
L 57.842792 32.658036 
L 58.416306 40.13564 
L 58.98982 28.919233 
L 59.563334 32.658036 
L 60.136849 36.396838 
L 60.710363 36.396838 
L 61.283877 40.13564 
L 61.857391 32.658036 
L 62.430905 32.658036 
L 63.004419 32.658036 
L 63.577933 32.658036 
L 64.151447 36.396838 
L 64.724961 28.919233 
L 65.298475 32.658036 
L 65.871989 13.964025 
L 66.445503 21.441629 
L 67.019017 28.919233 
L 67.592532 21.441629 
L 68.166046 25.180431 
L 68.73956 32.658036 
L 69.313074 32.658036 
L 69.886588 40.13564 
L 70.460102 36.396838 
L 71.033616 32.658036 
L 71.60713 32.658036 
L 72.180644 21.441629 
L 72.754158 40.13564 
L 73.327672 25.180431 
L 73.901186 36.396838 
L 74.4747 36.396838 
L 75.048215 32.658036 
L 75.621729 32.658036 
L 76.195243 32.658036 
L 76.768757 36.396838 
L 77.342271 36.396838 
L 77.915785 40.13564 
" clip-path="url(#p41490cf75f)" style="fill: none; stroke: #e41a1c; stroke-linecap: square"/>
   </g>
   <g id="patch_3">
    <path d="M 45.94399 41.903992 
L 45.94399 3.00024 
" style="fill: none; stroke: #000000; stroke-width: 0.8; stroke-linejoin: miter; stroke-linecap: square"/>
   </g>
   <g id="patch_4">
    <path d="M 45.94399 41.903992 
L 127.393461 41.903992 
" style="fill: none; stroke: #000000; stroke-width: 0.8; stroke-linejoin: miter; stroke-linecap: square"/>
   </g>
  </g>
  <g id="axes_2">
   <g id="patch_5">
    <path d="M 45.94399 103.48635 
L 127.393461 103.48635 
L 127.393461 64.582597 
L 45.94399 64.582597 
z
" style="fill: #ffffff"/>
   </g>
   <g id="matplotlib.axis_3">
    <g id="xtick_3">
     <g id="line2d_10">
      <g>
       <use xlink:href="#m813ca7adbc" x="51.470895" y="103.48635" style="stroke: #000000; stroke-width: 0.8"/>
      </g>
     </g>
     <g id="text_5">
      <!-- 0 -->
      <g transform="translate(48.289645 118.084787) scale(0.1 -0.1)">
       <use xlink:href="#DejaVuSans-30"/>
      </g>
     </g>
    </g>
    <g id="xtick_4">
     <g id="line2d_11">
      <g>
       <use xlink:href="#m813ca7adbc" x="90.048781" y="103.48635" style="stroke: #000000; stroke-width: 0.8"/>
      </g>
     </g>
     <g id="text_6">
      <!-- 1000 -->
      <g transform="translate(77.323781 118.084787) scale(0.1 -0.1)">
       <defs>
        <path id="DejaVuSans-31" d="M 794 531 
L 1825 531 
L 1825 4091 
L 703 3866 
L 703 4441 
L 1819 4666 
L 2450 4666 
L 2450 531 
L 3481 531 
L 3481 0 
L 794 0 
L 794 531 
z
" transform="scale(0.015625)"/>
       </defs>
       <use xlink:href="#DejaVuSans-31"/>
       <use xlink:href="#DejaVuSans-30" x="63.623047"/>
       <use xlink:href="#DejaVuSans-30" x="127.246094"/>
       <use xlink:href="#DejaVuSans-30" x="190.869141"/>
      </g>
     </g>
    </g>
   </g>
   <g id="matplotlib.axis_4">
    <g id="ytick_3">
     <g id="line2d_12">
      <g>
       <use xlink:href="#m7937f4d466" x="45.94399" y="102.474336" style="stroke: #000000; stroke-width: 0.8"/>
      </g>
     </g>
     <g id="text_7">
      <!-- 0.0 -->
      <g transform="translate(23.040865 106.273555) scale(0.1 -0.1)">
       <use xlink:href="#DejaVuSans-30"/>
       <use xlink:href="#DejaVuSans-2e" x="63.623047"/>
       <use xlink:href="#DejaVuSans-30" x="95.410156"/>
      </g>
     </g>
    </g>
    <g id="ytick_4">
     <g id="line2d_13">
      <g>
       <use xlink:href="#m7937f4d466" x="45.94399" y="68.665985" style="stroke: #000000; stroke-width: 0.8"/>
      </g>
     </g>
     <g id="text_8">
      <!-- 0.1 -->
      <g transform="translate(23.040865 72.465204) scale(0.1 -0.1)">
       <use xlink:href="#DejaVuSans-30"/>
       <use xlink:href="#DejaVuSans-2e" x="63.623047"/>
       <use xlink:href="#DejaVuSans-31" x="95.410156"/>
      </g>
     </g>
    </g>
   </g>
   <g id="line2d_14">
    <path d="M 50.037496 79.951159 
L 51.028484 71.16594 
L 52.019473 77.651672 
L 53.010462 81.661033 
L 54.00145 85.080783 
L 54.992439 85.611434 
L 55.983428 86.613774 
L 56.974417 88.441571 
L 57.965405 90.092485 
L 58.956394 91.389631 
L 59.947383 92.981583 
L 60.938371 93.276389 
L 61.92936 93.040545 
L 62.920349 94.219768 
L 63.911338 94.632497 
L 64.902326 95.457954 
L 65.893315 95.104186 
L 66.884304 96.814061 
L 67.875293 96.28341 
L 68.866281 97.108867 
L 69.85727 98.700819 
L 70.848259 98.111208 
L 71.839247 97.580557 
L 72.830236 98.111208 
L 73.821225 98.818742 
L 74.812214 98.582897 
L 75.803202 99.349393 
L 76.794191 99.70316 
L 77.78518 99.762121 
L 78.776168 99.113548 
L 79.767157 100.056927 
L 80.758146 99.467315 
L 81.749135 99.997966 
L 82.740123 100.174849 
L 83.731112 99.821082 
L 84.722101 99.526276 
L 85.713089 100.587578 
L 86.704078 99.939005 
L 87.695067 100.823423 
L 88.686056 101.118229 
L 89.677044 100.469655 
L 90.668033 100.941345 
L 91.659022 100.469655 
L 92.65001 100.7055 
L 93.640999 101.118229 
L 94.631988 101.059267 
L 95.622977 101.17719 
L 96.613965 101.000306 
L 97.604954 101.530957 
L 98.595943 101.236151 
" clip-path="url(#p4dc75ebb7d)" style="fill: none; stroke: #377eb8; stroke-linecap: square"/>
   </g>
   <g id="line2d_15">
    <path d="M 49.679539 98.314472 
L 49.954615 97.179964 
L 50.229691 93.776438 
L 50.504766 95.289116 
L 50.779842 84.700371 
L 51.054918 85.07854 
L 51.329994 80.540507 
L 51.605069 83.944032 
L 51.880145 88.103896 
L 52.155221 88.103896 
L 52.430297 94.154608 
L 52.705372 85.45671 
L 52.980448 94.154608 
L 53.255524 89.994744 
L 53.5306 92.26376 
L 53.805675 91.129252 
L 54.080751 94.532777 
L 54.355827 94.154608 
L 54.630903 98.692641 
L 54.905978 94.532777 
L 55.181054 94.532777 
L 55.45613 100.205319 
L 55.731206 96.423625 
L 56.006281 95.289116 
L 56.281357 99.44898 
L 56.556433 97.936302 
L 56.831509 96.045455 
L 57.106584 100.205319 
L 57.38166 97.936302 
L 57.656736 96.801794 
L 57.931812 98.692641 
L 58.206887 97.179964 
L 58.481963 98.692641 
L 58.757039 99.070811 
L 59.032115 100.205319 
L 59.30719 99.070811 
L 59.582266 99.44898 
L 59.857342 98.314472 
L 60.132418 99.44898 
L 60.407493 97.936302 
L 60.682569 100.961658 
L 60.957645 99.070811 
L 61.232721 98.692641 
L 61.507797 99.82715 
L 61.782872 101.717997 
L 62.057948 97.936302 
L 62.333024 99.44898 
L 62.6081 100.205319 
L 62.883175 99.44898 
L 63.158251 101.339828 
" clip-path="url(#p4dc75ebb7d)" style="fill: none; stroke: #377eb8; stroke-linecap: square"/>
   </g>
   <g id="line2d_16">
    <path d="M 49.868771 101.650245 
L 50.522312 101.547233 
L 51.175852 89.80393 
L 51.829392 67.038405 
L 52.482932 74.043182 
L 53.136473 74.661251 
L 53.790013 78.163639 
L 54.443553 78.369662 
L 55.097093 89.906942 
L 55.750634 88.464782 
L 56.404174 89.700919 
L 57.057714 88.979839 
L 57.711254 91.761148 
L 58.364794 93.512342 
L 59.018335 94.748479 
L 59.671875 94.954502 
L 60.325415 95.675582 
L 60.978955 97.529788 
L 61.632496 96.087628 
L 62.286036 97.838822 
L 62.939576 98.147856 
L 63.593116 97.117742 
L 64.246657 97.838822 
L 64.900197 98.45689 
L 65.553737 97.941833 
L 66.207277 98.662913 
L 66.860818 98.559902 
L 67.514358 99.590016 
L 68.167898 99.590016 
L 68.821438 99.590016 
L 69.474979 99.590016 
L 70.128519 99.693028 
L 70.782059 100.208085 
L 71.435599 99.89905 
L 72.08914 100.62013 
L 72.74268 101.444222 
L 73.39622 100.311096 
L 74.04976 101.032176 
L 74.7033 101.135188 
L 75.356841 101.238199 
L 76.010381 100.723142 
L 76.663921 100.723142 
L 77.317461 101.135188 
L 77.971002 101.444222 
L 78.624542 100.62013 
L 79.278082 101.547233 
L 79.931622 100.826153 
L 80.585163 101.238199 
L 81.238703 101.135188 
L 81.892243 101.135188 
" clip-path="url(#p4dc75ebb7d)" style="fill: none; stroke: #377eb8; stroke-linecap: square"/>
   </g>
   <g id="line2d_17">
    <path d="M 49.646239 100.845579 
L 49.854714 98.518782 
L 50.063188 96.191986 
L 50.271663 89.909636 
L 50.480138 80.137091 
L 50.688613 83.859965 
L 50.897088 85.023364 
L 51.105563 86.884801 
L 51.314038 89.676956 
L 51.522513 87.35016 
L 51.730988 89.676956 
L 51.939462 92.003753 
L 52.147937 88.978917 
L 52.356412 88.513558 
L 52.564887 93.167151 
L 52.773362 91.771073 
L 52.981837 92.469112 
L 53.190312 93.167151 
L 53.398787 96.191986 
L 53.607262 98.751462 
L 53.815737 95.959306 
L 54.024211 96.191986 
L 54.232686 98.751462 
L 54.441161 96.191986 
L 54.649636 95.726627 
L 54.858111 99.91486 
L 55.066586 93.86519 
L 55.275061 100.380219 
L 55.483536 94.330549 
L 55.692011 100.612899 
L 55.900485 95.028588 
L 56.10896 98.751462 
L 56.317435 98.518782 
L 56.52591 99.216821 
L 56.734385 98.984142 
L 56.94286 99.682181 
L 57.151335 100.612899 
L 57.35981 98.518782 
L 57.568285 99.216821 
L 57.776759 99.449501 
L 57.985234 99.682181 
L 58.193709 100.612899 
L 58.402184 99.216821 
L 58.610659 101.543618 
L 58.819134 100.14754 
L 59.027609 98.751462 
L 59.236084 101.543618 
L 59.444559 100.14754 
L 59.653034 101.310938 
L 59.861508 99.682181 
" clip-path="url(#p4dc75ebb7d)" style="fill: none; stroke: #377eb8; stroke-linecap: square"/>
   </g>
   <g id="line2d_18">
    <path d="M 50.290983 89.893686 
L 51.788947 66.35095 
L 53.286911 70.470929 
L 54.784875 74.909715 
L 56.282839 77.53375 
L 57.780802 79.373026 
L 59.278766 82.781818 
L 60.77673 83.762765 
L 62.274694 86.092515 
L 63.772658 86.705607 
L 65.270622 89.378689 
L 66.768586 90.85011 
L 68.266549 92.664863 
L 69.764513 93.91557 
L 71.262477 95.754847 
L 72.760441 96.613176 
L 74.258405 97.275315 
L 75.756369 98.599594 
L 77.254333 99.090068 
L 78.752296 99.727684 
L 80.25026 99.874826 
L 81.748224 100.291728 
L 83.246188 100.659584 
L 84.744152 100.90482 
L 86.242116 101.076486 
L 87.74008 100.659584 
L 89.238043 101.125534 
L 90.736007 101.174581 
L 92.233971 100.978391 
L 93.731935 101.10101 
L 95.229899 101.517912 
L 96.727863 101.125534 
L 98.225827 101.051962 
L 99.72379 101.321723 
L 101.221754 101.076486 
L 102.719718 101.591484 
L 104.217682 101.444341 
L 105.715646 101.37077 
L 107.21361 101.272676 
L 108.711574 100.316252 
L 110.209537 101.150057 
L 111.707501 100.684107 
L 113.205465 101.517912 
L 114.703429 101.419818 
L 116.201393 101.493389 
L 117.699357 101.714102 
L 119.197321 101.517912 
L 120.695284 101.468865 
L 122.193248 101.542436 
L 123.691212 101.444341 
" clip-path="url(#p4dc75ebb7d)" style="fill: none; stroke: #377eb8; stroke-linecap: square"/>
   </g>
   <g id="patch_6">
    <path d="M 45.94399 103.48635 
L 45.94399 64.582597 
" style="fill: none; stroke: #000000; stroke-width: 0.8; stroke-linejoin: miter; stroke-linecap: square"/>
   </g>
   <g id="patch_7">
    <path d="M 45.94399 103.48635 
L 127.393461 103.48635 
" style="fill: none; stroke: #000000; stroke-width: 0.8; stroke-linejoin: miter; stroke-linecap: square"/>
   </g>
  </g>
  <g id="axes_3">
   <g id="patch_8">
    <path d="M 45.94399 165.068707 
L 127.393461 165.068707 
L 127.393461 126.164955 
L 45.94399 126.164955 
z
" style="fill: #ffffff"/>
   </g>
   <g id="matplotlib.axis_5">
    <g id="xtick_5">
     <g id="line2d_19">
      <g>
       <use xlink:href="#m813ca7adbc" x="54.107293" y="165.068707" style="stroke: #000000; stroke-width: 0.8"/>
      </g>
     </g>
     <g id="text_9">
      <!-- 0 -->
      <g transform="translate(50.926043 179.667144) scale(0.1 -0.1)">
       <use xlink:href="#DejaVuSans-30"/>
      </g>
     </g>
    </g>
    <g id="xtick_6">
     <g id="line2d_20">
      <g>
       <use xlink:href="#m813ca7adbc" x="99.138969" y="165.068707" style="stroke: #000000; stroke-width: 0.8"/>
      </g>
     </g>
     <g id="text_10">
      <!-- 500 -->
      <g transform="translate(89.595219 179.667144) scale(0.1 -0.1)">
       <use xlink:href="#DejaVuSans-35"/>
       <use xlink:href="#DejaVuSans-30" x="63.623047"/>
       <use xlink:href="#DejaVuSans-30" x="127.246094"/>
      </g>
     </g>
    </g>
    <g id="text_11">
     <!-- Time [ms] -->
     <g transform="translate(61.469507 193.345269) scale(0.1 -0.1)">
      <defs>
       <path id="DejaVuSans-54" d="M -19 4666 
L 3928 4666 
L 3928 4134 
L 2272 4134 
L 2272 0 
L 1638 0 
L 1638 4134 
L -19 4134 
L -19 4666 
z
" transform="scale(0.015625)"/>
       <path id="DejaVuSans-69" d="M 603 3500 
L 1178 3500 
L 1178 0 
L 603 0 
L 603 3500 
z
M 603 4863 
L 1178 4863 
L 1178 4134 
L 603 4134 
L 603 4863 
z
" transform="scale(0.015625)"/>
       <path id="DejaVuSans-6d" d="M 3328 2828 
Q 3544 3216 3844 3400 
Q 4144 3584 4550 3584 
Q 5097 3584 5394 3201 
Q 5691 2819 5691 2113 
L 5691 0 
L 5113 0 
L 5113 2094 
Q 5113 2597 4934 2840 
Q 4756 3084 4391 3084 
Q 3944 3084 3684 2787 
Q 3425 2491 3425 1978 
L 3425 0 
L 2847 0 
L 2847 2094 
Q 2847 2600 2669 2842 
Q 2491 3084 2119 3084 
Q 1678 3084 1418 2786 
Q 1159 2488 1159 1978 
L 1159 0 
L 581 0 
L 581 3500 
L 1159 3500 
L 1159 2956 
Q 1356 3278 1631 3431 
Q 1906 3584 2284 3584 
Q 2666 3584 2933 3390 
Q 3200 3197 3328 2828 
z
" transform="scale(0.015625)"/>
       <path id="DejaVuSans-65" d="M 3597 1894 
L 3597 1613 
L 953 1613 
Q 991 1019 1311 708 
Q 1631 397 2203 397 
Q 2534 397 2845 478 
Q 3156 559 3463 722 
L 3463 178 
Q 3153 47 2828 -22 
Q 2503 -91 2169 -91 
Q 1331 -91 842 396 
Q 353 884 353 1716 
Q 353 2575 817 3079 
Q 1281 3584 2069 3584 
Q 2775 3584 3186 3129 
Q 3597 2675 3597 1894 
z
M 3022 2063 
Q 3016 2534 2758 2815 
Q 2500 3097 2075 3097 
Q 1594 3097 1305 2825 
Q 1016 2553 972 2059 
L 3022 2063 
z
" transform="scale(0.015625)"/>
       <path id="DejaVuSans-20" transform="scale(0.015625)"/>
       <path id="DejaVuSans-5b" d="M 550 4863 
L 1875 4863 
L 1875 4416 
L 1125 4416 
L 1125 -397 
L 1875 -397 
L 1875 -844 
L 550 -844 
L 550 4863 
z
" transform="scale(0.015625)"/>
       <path id="DejaVuSans-73" d="M 2834 3397 
L 2834 2853 
Q 2591 2978 2328 3040 
Q 2066 3103 1784 3103 
Q 1356 3103 1142 2972 
Q 928 2841 928 2578 
Q 928 2378 1081 2264 
Q 1234 2150 1697 2047 
L 1894 2003 
Q 2506 1872 2764 1633 
Q 3022 1394 3022 966 
Q 3022 478 2636 193 
Q 2250 -91 1575 -91 
Q 1294 -91 989 -36 
Q 684 19 347 128 
L 347 722 
Q 666 556 975 473 
Q 1284 391 1588 391 
Q 1994 391 2212 530 
Q 2431 669 2431 922 
Q 2431 1156 2273 1281 
Q 2116 1406 1581 1522 
L 1381 1569 
Q 847 1681 609 1914 
Q 372 2147 372 2553 
Q 372 3047 722 3315 
Q 1072 3584 1716 3584 
Q 2034 3584 2315 3537 
Q 2597 3491 2834 3397 
z
" transform="scale(0.015625)"/>
       <path id="DejaVuSans-5d" d="M 1947 4863 
L 1947 -844 
L 622 -844 
L 622 -397 
L 1369 -397 
L 1369 4416 
L 622 4416 
L 622 4863 
L 1947 4863 
z
" transform="scale(0.015625)"/>
      </defs>
      <use xlink:href="#DejaVuSans-54"/>
      <use xlink:href="#DejaVuSans-69" x="57.958984"/>
      <use xlink:href="#DejaVuSans-6d" x="85.742188"/>
      <use xlink:href="#DejaVuSans-65" x="183.154297"/>
      <use xlink:href="#DejaVuSans-20" x="244.677734"/>
      <use xlink:href="#DejaVuSans-5b" x="276.464844"/>
      <use xlink:href="#DejaVuSans-6d" x="315.478516"/>
      <use xlink:href="#DejaVuSans-73" x="412.890625"/>
      <use xlink:href="#DejaVuSans-5d" x="464.990234"/>
     </g>
    </g>
   </g>
   <g id="matplotlib.axis_6">
    <g id="ytick_5">
     <g id="line2d_21">
      <g>
       <use xlink:href="#m7937f4d466" x="45.94399" y="163.300354" style="stroke: #000000; stroke-width: 0.8"/>
      </g>
     </g>
     <g id="text_12">
      <!-- 0.00 -->
      <g transform="translate(16.678365 167.099573) scale(0.1 -0.1)">
       <use xlink:href="#DejaVuSans-30"/>
       <use xlink:href="#DejaVuSans-2e" x="63.623047"/>
       <use xlink:href="#DejaVuSans-30" x="95.410156"/>
       <use xlink:href="#DejaVuSans-30" x="159.033203"/>
      </g>
     </g>
    </g>
    <g id="ytick_6">
     <g id="line2d_22">
      <g>
       <use xlink:href="#m7937f4d466" x="45.94399" y="140.311774" style="stroke: #000000; stroke-width: 0.8"/>
      </g>
     </g>
     <g id="text_13">
      <!-- 0.05 -->
      <g transform="translate(16.678365 144.110992) scale(0.1 -0.1)">
       <use xlink:href="#DejaVuSans-30"/>
       <use xlink:href="#DejaVuSans-2e" x="63.623047"/>
       <use xlink:href="#DejaVuSans-30" x="95.410156"/>
       <use xlink:href="#DejaVuSans-35" x="159.033203"/>
      </g>
     </g>
    </g>
    <g id="text_14">
     <!-- Rate [Hz] -->
     <g transform="translate(10.598678 168.954331) rotate(-90) scale(0.1 -0.1)">
      <defs>
       <path id="DejaVuSans-52" d="M 2841 2188 
Q 3044 2119 3236 1894 
Q 3428 1669 3622 1275 
L 4263 0 
L 3584 0 
L 2988 1197 
Q 2756 1666 2539 1819 
Q 2322 1972 1947 1972 
L 1259 1972 
L 1259 0 
L 628 0 
L 628 4666 
L 2053 4666 
Q 2853 4666 3247 4331 
Q 3641 3997 3641 3322 
Q 3641 2881 3436 2590 
Q 3231 2300 2841 2188 
z
M 1259 4147 
L 1259 2491 
L 2053 2491 
Q 2509 2491 2742 2702 
Q 2975 2913 2975 3322 
Q 2975 3731 2742 3939 
Q 2509 4147 2053 4147 
L 1259 4147 
z
" transform="scale(0.015625)"/>
       <path id="DejaVuSans-61" d="M 2194 1759 
Q 1497 1759 1228 1600 
Q 959 1441 959 1056 
Q 959 750 1161 570 
Q 1363 391 1709 391 
Q 2188 391 2477 730 
Q 2766 1069 2766 1631 
L 2766 1759 
L 2194 1759 
z
M 3341 1997 
L 3341 0 
L 2766 0 
L 2766 531 
Q 2569 213 2275 61 
Q 1981 -91 1556 -91 
Q 1019 -91 701 211 
Q 384 513 384 1019 
Q 384 1609 779 1909 
Q 1175 2209 1959 2209 
L 2766 2209 
L 2766 2266 
Q 2766 2663 2505 2880 
Q 2244 3097 1772 3097 
Q 1472 3097 1187 3025 
Q 903 2953 641 2809 
L 641 3341 
Q 956 3463 1253 3523 
Q 1550 3584 1831 3584 
Q 2591 3584 2966 3190 
Q 3341 2797 3341 1997 
z
" transform="scale(0.015625)"/>
       <path id="DejaVuSans-74" d="M 1172 4494 
L 1172 3500 
L 2356 3500 
L 2356 3053 
L 1172 3053 
L 1172 1153 
Q 1172 725 1289 603 
Q 1406 481 1766 481 
L 2356 481 
L 2356 0 
L 1766 0 
Q 1100 0 847 248 
Q 594 497 594 1153 
L 594 3053 
L 172 3053 
L 172 3500 
L 594 3500 
L 594 4494 
L 1172 4494 
z
" transform="scale(0.015625)"/>
       <path id="DejaVuSans-48" d="M 628 4666 
L 1259 4666 
L 1259 2753 
L 3553 2753 
L 3553 4666 
L 4184 4666 
L 4184 0 
L 3553 0 
L 3553 2222 
L 1259 2222 
L 1259 0 
L 628 0 
L 628 4666 
z
" transform="scale(0.015625)"/>
       <path id="DejaVuSans-7a" d="M 353 3500 
L 3084 3500 
L 3084 2975 
L 922 459 
L 3084 459 
L 3084 0 
L 275 0 
L 275 525 
L 2438 3041 
L 353 3041 
L 353 3500 
z
" transform="scale(0.015625)"/>
      </defs>
      <use xlink:href="#DejaVuSans-52"/>
      <use xlink:href="#DejaVuSans-61" x="67.232422"/>
      <use xlink:href="#DejaVuSans-74" x="128.511719"/>
      <use xlink:href="#DejaVuSans-65" x="167.720703"/>
      <use xlink:href="#DejaVuSans-20" x="229.244141"/>
      <use xlink:href="#DejaVuSans-5b" x="261.03125"/>
      <use xlink:href="#DejaVuSans-48" x="300.044922"/>
      <use xlink:href="#DejaVuSans-7a" x="375.240234"/>
      <use xlink:href="#DejaVuSans-5d" x="427.730469"/>
     </g>
    </g>
   </g>
   <g id="line2d_23">
    <path d="M 49.831517 156.226945 
L 50.286301 156.226945 
L 50.741085 158.584748 
L 51.195869 155.048043 
L 51.650653 151.511339 
L 52.105437 147.974634 
L 52.56022 139.722323 
L 53.015004 137.36452 
L 53.469788 143.259028 
L 53.924572 155.048043 
L 54.379356 153.869142 
L 54.83414 159.76365 
L 55.288924 139.722323 
L 55.743708 142.080126 
L 56.198492 138.543421 
L 56.653276 147.974634 
L 57.10806 153.869142 
L 57.562843 160.942551 
L 58.017627 158.584748 
L 58.472411 156.226945 
L 58.927195 156.226945 
L 59.381979 156.226945 
L 59.836763 151.511339 
L 60.291547 153.869142 
L 60.746331 156.226945 
L 61.201115 149.153535 
L 61.655899 151.511339 
L 62.110683 142.080126 
L 62.565466 156.226945 
L 63.02025 156.226945 
L 63.475034 156.226945 
L 63.929818 155.048043 
L 64.384602 158.584748 
L 64.839386 162.121453 
L 65.29417 159.76365 
L 65.748954 158.584748 
L 66.203738 157.405847 
L 66.658522 156.226945 
L 67.113306 152.69024 
L 67.568089 155.048043 
L 68.022873 158.584748 
L 68.477657 157.405847 
L 68.932441 159.76365 
L 69.387225 155.048043 
L 69.842009 158.584748 
L 70.296793 158.584748 
L 70.751577 160.942551 
L 71.206361 158.584748 
L 71.661145 162.121453 
L 72.115929 162.121453 
" clip-path="url(#p4bfab7e1d1)" style="fill: none; stroke: #4daf4a; stroke-linecap: square"/>
   </g>
   <g id="line2d_24">
    <path d="M 49.646239 127.933307 
L 49.730466 154.458593 
L 49.814693 163.300354 
L 49.89892 163.300354 
L 49.983148 154.458593 
L 50.067375 154.458593 
L 50.151602 145.616831 
L 50.235829 127.933307 
L 50.320057 163.300354 
L 50.404284 163.300354 
L 50.488511 145.616831 
L 50.572738 163.300354 
L 50.656966 163.300354 
L 50.741193 145.616831 
L 50.82542 163.300354 
L 50.909647 163.300354 
L 50.993875 154.458593 
L 51.078102 145.616831 
L 51.162329 145.616831 
L 51.246556 136.775069 
L 51.330784 145.616831 
L 51.415011 154.458593 
L 51.499238 127.933307 
L 51.583465 154.458593 
L 51.667693 163.300354 
L 51.75192 163.300354 
L 51.836147 136.775069 
L 51.920374 154.458593 
L 52.004602 163.300354 
L 52.088829 154.458593 
L 52.173056 154.458593 
L 52.257283 163.300354 
L 52.341511 154.458593 
L 52.425738 154.458593 
L 52.509965 163.300354 
L 52.594192 163.300354 
L 52.67842 145.616831 
L 52.762647 154.458593 
L 52.846874 163.300354 
L 52.931101 163.300354 
L 53.015329 163.300354 
L 53.099556 154.458593 
L 53.183783 154.458593 
L 53.26801 163.300354 
L 53.352238 154.458593 
L 53.436465 154.458593 
L 53.520692 154.458593 
L 53.604919 154.458593 
L 53.689147 145.616831 
L 53.773374 163.300354 
" clip-path="url(#p4bfab7e1d1)" style="fill: none; stroke: #4daf4a; stroke-linecap: square"/>
   </g>
   <g id="line2d_25">
    <path d="M 50.20564 158.435706 
L 51.40867 149.579552 
L 52.611701 142.095478 
L 53.814731 138.228706 
L 55.017761 139.351317 
L 56.220791 138.353441 
L 57.423822 141.59654 
L 58.626852 140.972867 
L 59.829882 142.843885 
L 61.032912 144.590169 
L 62.235943 145.338577 
L 63.438973 147.833268 
L 64.642003 148.456941 
L 65.845033 151.201101 
L 67.048064 149.579552 
L 68.251094 152.323712 
L 69.454124 150.327959 
L 70.657154 151.949509 
L 71.860185 152.573182 
L 73.063215 154.943138 
L 74.266245 153.820527 
L 75.469275 155.317342 
L 76.672306 154.693669 
L 77.875336 154.4442 
L 79.078366 156.315219 
L 80.281396 155.691546 
L 81.484427 155.81628 
L 82.687457 158.061503 
L 83.890487 155.81628 
L 85.093517 157.063626 
L 86.296548 157.43783 
L 87.499578 158.685175 
L 88.702608 157.812033 
L 89.905638 159.932521 
L 91.108669 158.934645 
L 92.311699 157.936768 
L 93.514729 159.932521 
L 94.717759 160.306725 
L 95.92079 160.556194 
L 97.12382 161.179867 
L 98.32685 161.429336 
L 99.52988 160.431459 
L 100.732911 160.680929 
L 101.935941 161.429336 
L 103.138971 161.928274 
L 104.342001 161.429336 
L 105.545032 161.554071 
L 106.748062 162.177743 
L 107.951092 161.429336 
L 109.154122 162.427212 
" clip-path="url(#p4bfab7e1d1)" style="fill: none; stroke: #4daf4a; stroke-linecap: square"/>
   </g>
   <g id="line2d_26">
    <path d="M 50.352479 160.106017 
L 51.849188 160.95784 
L 53.345897 157.976459 
L 54.842606 148.393447 
L 56.339315 139.023391 
L 57.836024 132.208805 
L 59.332732 137.958612 
L 60.829441 141.791817 
L 62.32615 143.282507 
L 63.822859 148.606403 
L 65.319568 146.476845 
L 66.816277 144.560242 
L 68.312985 146.902756 
L 69.809694 149.24527 
L 71.306403 150.523005 
L 72.803112 151.374828 
L 74.299821 151.374828 
L 75.79653 151.80074 
L 77.293238 155.633945 
L 78.789947 151.374828 
L 80.286656 153.504387 
L 81.783365 154.143254 
L 83.280074 153.717343 
L 84.776783 157.124636 
L 86.273491 152.226652 
L 87.7702 155.633945 
L 89.266909 156.059857 
L 90.763618 156.91168 
L 92.260327 156.059857 
L 93.757036 157.337591 
L 95.253744 157.763503 
L 96.750453 158.189415 
L 98.247162 158.615326 
L 99.743871 156.698724 
L 101.24058 158.189415 
L 102.737289 159.680106 
L 104.233997 158.615326 
L 105.730706 158.828282 
L 107.227415 158.402371 
L 108.724124 157.763503 
L 110.220833 160.106017 
L 111.717541 159.680106 
L 113.21425 159.46715 
L 114.710959 160.318973 
L 116.207668 160.106017 
L 117.704377 159.893061 
L 119.201086 159.680106 
L 120.697794 160.318973 
L 122.194503 160.318973 
L 123.691212 160.318973 
" clip-path="url(#p4bfab7e1d1)" style="fill: none; stroke: #4daf4a; stroke-linecap: square"/>
   </g>
   <g id="line2d_27">
    <path d="M 50.07775 160.698766 
L 51.025001 161.171782 
L 51.972251 151.711461 
L 52.919501 144.379712 
L 53.866752 137.047963 
L 54.814002 139.413043 
L 55.761252 146.035268 
L 56.708502 140.359075 
L 57.655753 145.562252 
L 58.603003 150.765429 
L 59.550253 148.636856 
L 60.497504 147.217808 
L 61.444754 146.744792 
L 62.392004 149.109872 
L 63.339255 150.055905 
L 64.286505 147.454316 
L 65.233755 151.711461 
L 66.181006 154.786065 
L 67.128256 150.528921 
L 68.075506 154.076541 
L 69.022757 152.420985 
L 69.970007 151.001937 
L 70.917257 154.313049 
L 71.864508 151.001937 
L 72.811758 153.367017 
L 73.759008 154.786065 
L 74.706259 155.022573 
L 75.653509 154.549557 
L 76.600759 155.968605 
L 77.54801 157.624162 
L 78.49526 155.732097 
L 79.44251 156.205113 
L 80.389761 159.279718 
L 81.337011 155.968605 
L 82.284261 158.097178 
L 83.231512 158.333686 
L 84.178762 159.04321 
L 85.126012 159.279718 
L 86.073263 159.752734 
L 87.020513 161.171782 
L 87.967763 159.516226 
L 88.915013 161.40829 
L 89.862264 160.698766 
L 90.809514 159.989242 
L 91.756764 159.279718 
L 92.704015 161.40829 
L 93.651265 159.989242 
L 94.598515 160.462258 
L 95.545766 161.40829 
L 96.493016 160.698766 
" clip-path="url(#p4bfab7e1d1)" style="fill: none; stroke: #4daf4a; stroke-linecap: square"/>
   </g>
   <g id="patch_9">
    <path d="M 45.94399 165.068707 
L 45.94399 126.164955 
" style="fill: none; stroke: #000000; stroke-width: 0.8; stroke-linejoin: miter; stroke-linecap: square"/>
   </g>
   <g id="patch_10">
    <path d="M 45.94399 165.068707 
L 127.393461 165.068707 
" style="fill: none; stroke: #000000; stroke-width: 0.8; stroke-linejoin: miter; stroke-linecap: square"/>
   </g>
  </g>
 </g>
 <defs>
  <clipPath id="p41490cf75f">
   <rect x="45.94399" y="3.00024" width="81.449471" height="38.903752"/>
  </clipPath>
  <clipPath id="p4dc75ebb7d">
   <rect x="45.94399" y="64.582597" width="81.449471" height="38.903752"/>
  </clipPath>
  <clipPath id="p4bfab7e1d1">
   <rect x="45.94399" y="126.164955" width="81.449471" height="38.903752"/>
  </clipPath>
 </defs>
</svg>
