<?xml version="1.0" encoding="utf-8" standalone="no"?>
<!DOCTYPE svg PUBLIC "-//W3C//DTD SVG 1.1//EN"
  "http://www.w3.org/Graphics/SVG/1.1/DTD/svg11.dtd">
<svg xmlns:xlink="http://www.w3.org/1999/xlink" width="130.393701pt" height="99.212598pt" viewBox="0 0 130.393701 99.212598" xmlns="http://www.w3.org/2000/svg" version="1.1">
 <metadata>
  <rdf:RDF xmlns:dc="http://purl.org/dc/elements/1.1/" xmlns:cc="http://creativecommons.org/ns#" xmlns:rdf="http://www.w3.org/1999/02/22-rdf-syntax-ns#">
   <cc:Work>
    <dc:type rdf:resource="http://purl.org/dc/dcmitype/StillImage"/>
    <dc:date>2024-07-09T11:23:00.826901</dc:date>
    <dc:format>image/svg+xml</dc:format>
    <dc:creator>
     <cc:Agent>
      <dc:title>Matplotlib v3.8.2, https://matplotlib.org/</dc:title>
     </cc:Agent>
    </dc:creator>
   </cc:Work>
  </rdf:RDF>
 </metadata>
 <defs>
  <style type="text/css">*{stroke-linejoin: round; stroke-linecap: butt}</style>
 </defs>
 <g id="figure_1">
  <g id="patch_1">
   <path d="M 0 99.212598 
L 130.393701 99.212598 
L 130.393701 0 
L 0 0 
z
" style="fill: #ffffff"/>
  </g>
  <g id="axes_1">
   <g id="patch_2">
    <path d="M 41.278365 65.856108 
L 127.393461 65.856108 
L 127.393461 3.00024 
L 41.278365 3.00024 
z
" style="fill: #ffffff"/>
   </g>
   <g id="PolyCollection_1">
    <defs>
     <path id="m76fef07090" d="M 55.677847 -37.510236 
L 55.583915 -37.510236 
L 55.536096 -37.921948 
L 55.453067 -38.33366 
L 55.319814 -38.745373 
L 55.121408 -39.157085 
L 54.845899 -39.568797 
L 54.486522 -39.980509 
L 54.041982 -40.392221 
L 53.514515 -40.803934 
L 52.906851 -41.215646 
L 52.220085 -41.627358 
L 51.454209 -42.03907 
L 50.611503 -42.450782 
L 49.701316 -42.862495 
L 48.743915 -43.274207 
L 47.771664 -43.685919 
L 46.827134 -44.097631 
L 45.959007 -44.509343 
L 45.216984 -44.921056 
L 44.646494 -45.332768 
L 44.283414 -45.74448 
L 44.148868 -46.156192 
L 44.244772 -46.567904 
L 44.55145 -46.979617 
L 45.028965 -47.391329 
L 45.623018 -47.803041 
L 46.274615 -48.214753 
L 46.930892 -48.626465 
L 47.55351 -49.038178 
L 48.121808 -49.44989 
L 48.630149 -49.861602 
L 49.081527 -50.273314 
L 49.480975 -50.685026 
L 49.83171 -51.096739 
L 50.134895 -51.508451 
L 50.391732 -51.920163 
L 50.605714 -52.331875 
L 50.783453 -52.743587 
L 50.933835 -53.1553 
L 51.066245 -53.567012 
L 51.188828 -53.978724 
L 51.307391 -54.390436 
L 51.425082 -54.802148 
L 51.54278 -55.213861 
L 51.659993 -55.625573 
L 51.775919 -56.037285 
L 51.890138 -56.448997 
L 52.002496 -56.860709 
L 52.112335 -57.272422 
L 52.21792 -57.684134 
L 52.31699 -58.095846 
L 52.408555 -58.507558 
L 52.494799 -58.91927 
L 52.581379 -59.330983 
L 52.675273 -59.742695 
L 52.781026 -60.154407 
L 52.897624 -60.566119 
L 53.018091 -60.977831 
L 53.132356 -61.389544 
L 53.232029 -61.801256 
L 53.314624 -62.212968 
L 53.385076 -62.62468 
L 53.453793 -63.036392 
L 53.53221 -63.448105 
L 53.628095 -63.859817 
L 53.742899 -64.271529 
L 53.872268 -64.683241 
L 54.009024 -65.094953 
L 54.146685 -65.506666 
L 54.281551 -65.918378 
L 54.412683 -66.33009 
L 54.540461 -66.741802 
L 54.665114 -67.153514 
L 54.786119 -67.565227 
L 54.902447 -67.976939 
L 55.012987 -68.388651 
L 55.116609 -68.800363 
L 55.211867 -69.212075 
L 55.296829 -69.623788 
L 55.369377 -70.0355 
L 55.427942 -70.447212 
L 55.472247 -70.858924 
L 55.503635 -71.270637 
L 55.524812 -71.682349 
L 55.53916 -72.094061 
L 55.549891 -72.505773 
L 55.559368 -72.917485 
L 55.568764 -73.329198 
L 55.578171 -73.74091 
L 55.58705 -74.152622 
L 55.594803 -74.564334 
L 55.601179 -74.976046 
L 55.606363 -75.387759 
L 55.610779 -75.799471 
L 55.614804 -76.211183 
L 55.618582 -76.622895 
L 55.622026 -77.034607 
L 55.624949 -77.44632 
L 55.627211 -77.858032 
L 55.628793 -78.269744 
L 55.632969 -78.269744 
L 55.632969 -78.269744 
L 55.634551 -77.858032 
L 55.636813 -77.44632 
L 55.639736 -77.034607 
L 55.64318 -76.622895 
L 55.646958 -76.211183 
L 55.650983 -75.799471 
L 55.655399 -75.387759 
L 55.660583 -74.976046 
L 55.666959 -74.564334 
L 55.674712 -74.152622 
L 55.683591 -73.74091 
L 55.692998 -73.329198 
L 55.702394 -72.917485 
L 55.711871 -72.505773 
L 55.722602 -72.094061 
L 55.736949 -71.682349 
L 55.758127 -71.270637 
L 55.789515 -70.858924 
L 55.83382 -70.447212 
L 55.892385 -70.0355 
L 55.964933 -69.623788 
L 56.049895 -69.212075 
L 56.145153 -68.800363 
L 56.248774 -68.388651 
L 56.359315 -67.976939 
L 56.475643 -67.565227 
L 56.596648 -67.153514 
L 56.721301 -66.741802 
L 56.849079 -66.33009 
L 56.980211 -65.918378 
L 57.115077 -65.506666 
L 57.252738 -65.094953 
L 57.389494 -64.683241 
L 57.518862 -64.271529 
L 57.633667 -63.859817 
L 57.729552 -63.448105 
L 57.807969 -63.036392 
L 57.876686 -62.62468 
L 57.947138 -62.212968 
L 58.029733 -61.801256 
L 58.129406 -61.389544 
L 58.243671 -60.977831 
L 58.364138 -60.566119 
L 58.480736 -60.154407 
L 58.586489 -59.742695 
L 58.680383 -59.330983 
L 58.766963 -58.91927 
L 58.853207 -58.507558 
L 58.944772 -58.095846 
L 59.043842 -57.684134 
L 59.149427 -57.272422 
L 59.259266 -56.860709 
L 59.371624 -56.448997 
L 59.485843 -56.037285 
L 59.601769 -55.625573 
L 59.718981 -55.213861 
L 59.83668 -54.802148 
L 59.954371 -54.390436 
L 60.072934 -53.978724 
L 60.195517 -53.567012 
L 60.327927 -53.1553 
L 60.478309 -52.743587 
L 60.656048 -52.331875 
L 60.87003 -51.920163 
L 61.126867 -51.508451 
L 61.430052 -51.096739 
L 61.780787 -50.685026 
L 62.180235 -50.273314 
L 62.631613 -49.861602 
L 63.139954 -49.44989 
L 63.708252 -49.038178 
L 64.33087 -48.626465 
L 64.987147 -48.214753 
L 65.638744 -47.803041 
L 66.232797 -47.391329 
L 66.710312 -46.979617 
L 67.01699 -46.567904 
L 67.112894 -46.156192 
L 66.978348 -45.74448 
L 66.615267 -45.332768 
L 66.044778 -44.921056 
L 65.302755 -44.509343 
L 64.434628 -44.097631 
L 63.490098 -43.685919 
L 62.517847 -43.274207 
L 61.560446 -42.862495 
L 60.650259 -42.450782 
L 59.807553 -42.03907 
L 59.041677 -41.627358 
L 58.354911 -41.215646 
L 57.747247 -40.803934 
L 57.21978 -40.392221 
L 56.775239 -39.980509 
L 56.415863 -39.568797 
L 56.140354 -39.157085 
L 55.941948 -38.745373 
L 55.808695 -38.33366 
L 55.725666 -37.921948 
L 55.677847 -37.510236 
z
" style="stroke: #484848; stroke-width: 1.25"/>
    </defs>
    <g clip-path="url(#pdf55fce813)">
     <use xlink:href="#m76fef07090" x="0" y="99.212598" style="fill: #cb3335; stroke: #484848; stroke-width: 1.25"/>
    </g>
   </g>
   <g id="PolyCollection_2">
    <defs>
     <path id="m27ddcb36ca" d="M 84.348616 -36.213575 
L 84.32321 -36.213575 
L 84.314472 -36.790764 
L 84.30183 -37.367953 
L 84.284791 -37.945142 
L 84.263382 -38.52233 
L 84.238285 -39.099519 
L 84.210795 -39.676708 
L 84.182616 -40.253897 
L 84.155562 -40.831086 
L 84.131305 -41.408275 
L 84.111254 -41.985464 
L 84.096568 -42.562653 
L 84.088172 -43.139841 
L 84.086657 -43.71703 
L 84.092014 -44.294219 
L 84.103331 -44.871408 
L 84.118696 -45.448597 
L 84.13546 -46.025786 
L 84.150872 -46.602975 
L 84.162812 -47.180164 
L 84.170321 -47.757352 
L 84.173677 -48.334541 
L 84.173994 -48.91173 
L 84.172537 -49.488919 
L 84.169991 -50.066108 
L 84.165924 -50.643297 
L 84.158521 -51.220486 
L 84.144599 -51.797675 
L 84.119844 -52.374863 
L 84.079213 -52.952052 
L 84.017462 -53.529241 
L 83.929802 -54.10643 
L 83.812588 -54.683619 
L 83.663827 -55.260808 
L 83.483075 -55.837997 
L 83.270173 -56.415186 
L 83.02245 -56.992374 
L 82.73066 -57.569563 
L 82.374981 -58.146752 
L 81.923412 -58.723941 
L 81.335204 -59.30113 
L 80.570837 -59.878319 
L 79.607508 -60.455508 
L 78.45591 -61.032697 
L 77.171841 -61.609885 
L 75.856514 -62.187074 
L 74.642706 -62.764263 
L 73.669219 -63.341452 
L 73.050951 -63.918641 
L 72.8539 -64.49583 
L 73.082614 -65.073019 
L 73.682866 -65.650208 
L 74.557068 -66.227396 
L 75.586424 -66.804585 
L 76.653141 -67.381774 
L 77.657643 -67.958963 
L 78.528373 -68.536152 
L 79.224276 -69.113341 
L 79.731764 -69.69053 
L 80.058747 -70.267719 
L 80.228246 -70.844907 
L 80.273227 -71.422096 
L 80.232981 -71.999285 
L 80.150215 -72.576474 
L 80.06764 -73.153663 
L 80.023405 -73.730852 
L 80.04585 -74.308041 
L 80.149078 -74.88523 
L 80.331003 -75.462418 
L 80.574897 -76.039607 
L 80.854323 -76.616796 
L 81.140218 -77.193985 
L 81.408269 -77.771174 
L 81.644583 -78.348363 
L 81.848091 -78.925552 
L 82.029037 -79.502741 
L 82.20403 -80.079929 
L 82.389359 -80.657118 
L 82.594886 -81.234307 
L 82.820666 -81.811496 
L 83.057325 -82.388685 
L 83.289683 -82.965874 
L 83.50188 -83.543063 
L 83.68188 -84.120252 
L 83.823904 -84.69744 
L 83.928485 -85.274629 
L 84.000849 -85.851818 
L 84.048723 -86.429007 
L 84.080398 -87.006196 
L 84.103398 -87.583385 
L 84.123665 -88.160574 
L 84.145117 -88.737763 
L 84.169512 -89.314951 
L 84.196647 -89.89214 
L 84.224923 -90.469329 
L 84.252127 -91.046518 
L 84.276218 -91.623707 
L 84.295873 -92.200896 
L 84.310671 -92.778085 
L 84.320975 -93.355273 
L 84.350851 -93.355273 
L 84.350851 -93.355273 
L 84.361155 -92.778085 
L 84.375953 -92.200896 
L 84.395607 -91.623707 
L 84.419699 -91.046518 
L 84.446903 -90.469329 
L 84.475178 -89.89214 
L 84.502314 -89.314951 
L 84.526708 -88.737763 
L 84.548161 -88.160574 
L 84.568428 -87.583385 
L 84.591427 -87.006196 
L 84.623103 -86.429007 
L 84.670977 -85.851818 
L 84.743341 -85.274629 
L 84.847921 -84.69744 
L 84.989945 -84.120252 
L 85.169945 -83.543063 
L 85.382143 -82.965874 
L 85.614501 -82.388685 
L 85.85116 -81.811496 
L 86.07694 -81.234307 
L 86.282467 -80.657118 
L 86.467796 -80.079929 
L 86.642789 -79.502741 
L 86.823735 -78.925552 
L 87.027243 -78.348363 
L 87.263556 -77.771174 
L 87.531608 -77.193985 
L 87.817503 -76.616796 
L 88.096928 -76.039607 
L 88.340823 -75.462418 
L 88.522747 -74.88523 
L 88.625976 -74.308041 
L 88.648421 -73.730852 
L 88.604185 -73.153663 
L 88.521611 -72.576474 
L 88.438845 -71.999285 
L 88.398598 -71.422096 
L 88.44358 -70.844907 
L 88.613079 -70.267719 
L 88.940062 -69.69053 
L 89.44755 -69.113341 
L 90.143453 -68.536152 
L 91.014182 -67.958963 
L 92.018684 -67.381774 
L 93.085402 -66.804585 
L 94.114757 -66.227396 
L 94.98896 -65.650208 
L 95.589212 -65.073019 
L 95.817926 -64.49583 
L 95.620874 -63.918641 
L 95.002607 -63.341452 
L 94.02912 -62.764263 
L 92.815312 -62.187074 
L 91.499985 -61.609885 
L 90.215916 -61.032697 
L 89.064317 -60.455508 
L 88.100989 -59.878319 
L 87.336622 -59.30113 
L 86.748414 -58.723941 
L 86.296845 -58.146752 
L 85.941165 -57.569563 
L 85.649376 -56.992374 
L 85.401653 -56.415186 
L 85.188751 -55.837997 
L 85.007999 -55.260808 
L 84.859237 -54.683619 
L 84.742024 -54.10643 
L 84.654364 -53.529241 
L 84.592613 -52.952052 
L 84.551981 -52.374863 
L 84.527227 -51.797675 
L 84.513305 -51.220486 
L 84.505902 -50.643297 
L 84.501835 -50.066108 
L 84.499289 -49.488919 
L 84.497832 -48.91173 
L 84.498149 -48.334541 
L 84.501504 -47.757352 
L 84.509014 -47.180164 
L 84.520954 -46.602975 
L 84.536366 -46.025786 
L 84.55313 -45.448597 
L 84.568494 -44.871408 
L 84.579812 -44.294219 
L 84.585169 -43.71703 
L 84.583654 -43.139841 
L 84.575258 -42.562653 
L 84.560571 -41.985464 
L 84.540521 -41.408275 
L 84.516264 -40.831086 
L 84.48921 -40.253897 
L 84.461031 -39.676708 
L 84.433541 -39.099519 
L 84.408443 -38.52233 
L 84.387035 -37.945142 
L 84.369996 -37.367953 
L 84.357354 -36.790764 
L 84.348616 -36.213575 
z
" style="stroke: #484848; stroke-width: 1.25"/>
    </defs>
    <g clip-path="url(#pdf55fce813)">
     <use xlink:href="#m27ddcb36ca" x="0" y="99.212598" style="fill: #477ca8; stroke: #484848; stroke-width: 1.25"/>
    </g>
   </g>
   <g id="PolyCollection_3">
    <defs>
     <path id="m2185bbe33e" d="M 113.086933 -36.347554 
L 112.994956 -36.347554 
L 112.954539 -36.867973 
L 112.887134 -37.388392 
L 112.781026 -37.90881 
L 112.623081 -38.429229 
L 112.400344 -38.949648 
L 112.102185 -39.470066 
L 111.722628 -39.990485 
L 111.262418 -40.510903 
L 110.730381 -41.031322 
L 110.14377 -41.551741 
L 109.527472 -42.072159 
L 108.912112 -42.592578 
L 108.331237 -43.112997 
L 107.817925 -43.633415 
L 107.401233 -44.153834 
L 107.10302 -44.674253 
L 106.935646 -45.194671 
L 106.900939 -45.71509 
L 106.990552 -46.235509 
L 107.187493 -46.755927 
L 107.468384 -47.276346 
L 107.805939 -47.796765 
L 108.171361 -48.317183 
L 108.536562 -48.837602 
L 108.876202 -49.35802 
L 109.169395 -49.878439 
L 109.40075 -50.398858 
L 109.56045 -50.919276 
L 109.643321 -51.439695 
L 109.647283 -51.960114 
L 109.571766 -52.480532 
L 109.416622 -53.000951 
L 109.181803 -53.52137 
L 108.867846 -54.041788 
L 108.477103 -54.562207 
L 108.015553 -55.082626 
L 107.494768 -55.603044 
L 106.933164 -56.123463 
L 106.355402 -56.643881 
L 105.789078 -57.1643 
L 105.258883 -57.684719 
L 104.779873 -58.205137 
L 104.352538 -58.725556 
L 103.962415 -59.245975 
L 103.585549 -59.766393 
L 103.198856 -60.286812 
L 102.792198 -60.807231 
L 102.377879 -61.327649 
L 101.993778 -61.848068 
L 101.698413 -62.368487 
L 101.558932 -62.888905 
L 101.635341 -63.409324 
L 101.965406 -63.929743 
L 102.554319 -64.450161 
L 103.371709 -64.97058 
L 104.356577 -65.490998 
L 105.428751 -66.011417 
L 106.503998 -66.531836 
L 107.509136 -67.052254 
L 108.393577 -67.572673 
L 109.134766 -68.093092 
L 109.73671 -68.61351 
L 110.222736 -69.133929 
L 110.625171 -69.654348 
L 110.975163 -70.174766 
L 111.295366 -70.695185 
L 111.596876 -71.215604 
L 111.880304 -71.736022 
L 112.139618 -72.256441 
L 112.36686 -72.77686 
L 112.556052 -73.297278 
L 112.705284 -73.817697 
L 112.816899 -74.338115 
L 112.896318 -74.858534 
L 112.95036 -75.378953 
L 112.985745 -75.899371 
L 113.008169 -76.41979 
L 113.021966 -76.940209 
L 113.030179 -77.460627 
L 113.034806 -77.981046 
L 113.037086 -78.501465 
L 113.037715 -79.021883 
L 113.037019 -79.542302 
L 113.035097 -80.062721 
L 113.03196 -80.583139 
L 113.027678 -81.103558 
L 113.022509 -81.623977 
L 113.016969 -82.144395 
L 113.011811 -82.664814 
L 113.007879 -83.185232 
L 113.005895 -83.705651 
L 113.006247 -84.22607 
L 113.008867 -84.746488 
L 113.013249 -85.266907 
L 113.018613 -85.787326 
L 113.024129 -86.307744 
L 113.029119 -86.828163 
L 113.033178 -87.348582 
L 113.036181 -87.869 
L 113.045708 -87.869 
L 113.045708 -87.869 
L 113.048712 -87.348582 
L 113.052771 -86.828163 
L 113.057761 -86.307744 
L 113.063277 -85.787326 
L 113.068641 -85.266907 
L 113.073023 -84.746488 
L 113.075642 -84.22607 
L 113.075995 -83.705651 
L 113.074011 -83.185232 
L 113.070078 -82.664814 
L 113.06492 -82.144395 
L 113.059381 -81.623977 
L 113.054211 -81.103558 
L 113.049929 -80.583139 
L 113.046792 -80.062721 
L 113.044871 -79.542302 
L 113.044175 -79.021883 
L 113.044804 -78.501465 
L 113.047084 -77.981046 
L 113.051711 -77.460627 
L 113.059923 -76.940209 
L 113.073721 -76.41979 
L 113.096145 -75.899371 
L 113.13153 -75.378953 
L 113.185571 -74.858534 
L 113.264991 -74.338115 
L 113.376606 -73.817697 
L 113.525838 -73.297278 
L 113.71503 -72.77686 
L 113.942272 -72.256441 
L 114.201586 -71.736022 
L 114.485014 -71.215604 
L 114.786524 -70.695185 
L 115.106726 -70.174766 
L 115.456719 -69.654348 
L 115.859154 -69.133929 
L 116.34518 -68.61351 
L 116.947123 -68.093092 
L 117.688313 -67.572673 
L 118.572754 -67.052254 
L 119.577891 -66.531836 
L 120.653139 -66.011417 
L 121.725313 -65.490998 
L 122.710181 -64.97058 
L 123.527571 -64.450161 
L 124.116483 -63.929743 
L 124.446548 -63.409324 
L 124.522958 -62.888905 
L 124.383477 -62.368487 
L 124.088112 -61.848068 
L 123.70401 -61.327649 
L 123.289692 -60.807231 
L 122.883034 -60.286812 
L 122.49634 -59.766393 
L 122.119475 -59.245975 
L 121.729352 -58.725556 
L 121.302017 -58.205137 
L 120.823006 -57.684719 
L 120.292812 -57.1643 
L 119.726487 -56.643881 
L 119.148725 -56.123463 
L 118.587121 -55.603044 
L 118.066336 -55.082626 
L 117.604787 -54.562207 
L 117.214044 -54.041788 
L 116.900087 -53.52137 
L 116.665268 -53.000951 
L 116.510124 -52.480532 
L 116.434607 -51.960114 
L 116.438569 -51.439695 
L 116.521439 -50.919276 
L 116.681139 -50.398858 
L 116.912495 -49.878439 
L 117.205688 -49.35802 
L 117.545328 -48.837602 
L 117.910529 -48.317183 
L 118.275951 -47.796765 
L 118.613506 -47.276346 
L 118.894397 -46.755927 
L 119.091338 -46.235509 
L 119.18095 -45.71509 
L 119.146244 -45.194671 
L 118.97887 -44.674253 
L 118.680657 -44.153834 
L 118.263965 -43.633415 
L 117.750653 -43.112997 
L 117.169778 -42.592578 
L 116.554418 -42.072159 
L 115.93812 -41.551741 
L 115.351509 -41.031322 
L 114.819472 -40.510903 
L 114.359262 -39.990485 
L 113.979705 -39.470066 
L 113.681546 -38.949648 
L 113.458809 -38.429229 
L 113.300864 -37.90881 
L 113.194756 -37.388392 
L 113.127351 -36.867973 
L 113.086933 -36.347554 
z
" style="stroke: #484848; stroke-width: 1.25"/>
    </defs>
    <g clip-path="url(#pdf55fce813)">
     <use xlink:href="#m2185bbe33e" x="0" y="99.212598" style="fill: #59a257; stroke: #484848; stroke-width: 1.25"/>
    </g>
   </g>
   <g id="matplotlib.axis_1">
    <g id="xtick_1">
     <g id="line2d_1">
      <defs>
       <path id="mf433575167" d="M 0 0 
L 0 3.5 
" style="stroke: #000000; stroke-width: 0.8"/>
      </defs>
      <g>
       <use xlink:href="#mf433575167" x="55.630881" y="65.856108" style="stroke: #000000; stroke-width: 0.8"/>
      </g>
     </g>
     <g id="text_1">
      <!-- 1 -->
      <g transform="translate(52.449631 80.454546) scale(0.1 -0.1)">
       <defs>
        <path id="DejaVuSans-31" d="M 794 531 
L 1825 531 
L 1825 4091 
L 703 3866 
L 703 4441 
L 1819 4666 
L 2450 4666 
L 2450 531 
L 3481 531 
L 3481 0 
L 794 0 
L 794 531 
z
" transform="scale(0.015625)"/>
       </defs>
       <use xlink:href="#DejaVuSans-31"/>
      </g>
     </g>
    </g>
    <g id="xtick_2">
     <g id="line2d_2">
      <g>
       <use xlink:href="#mf433575167" x="84.335913" y="65.856108" style="stroke: #000000; stroke-width: 0.8"/>
      </g>
     </g>
     <g id="text_2">
      <!-- 2 -->
      <g transform="translate(81.154663 80.454546) scale(0.1 -0.1)">
       <defs>
        <path id="DejaVuSans-32" d="M 1228 531 
L 3431 531 
L 3431 0 
L 469 0 
L 469 531 
Q 828 903 1448 1529 
Q 2069 2156 2228 2338 
Q 2531 2678 2651 2914 
Q 2772 3150 2772 3378 
Q 2772 3750 2511 3984 
Q 2250 4219 1831 4219 
Q 1534 4219 1204 4116 
Q 875 4013 500 3803 
L 500 4441 
Q 881 4594 1212 4672 
Q 1544 4750 1819 4750 
Q 2544 4750 2975 4387 
Q 3406 4025 3406 3419 
Q 3406 3131 3298 2873 
Q 3191 2616 2906 2266 
Q 2828 2175 2409 1742 
Q 1991 1309 1228 531 
z
" transform="scale(0.015625)"/>
       </defs>
       <use xlink:href="#DejaVuSans-32"/>
      </g>
     </g>
    </g>
    <g id="xtick_3">
     <g id="line2d_3">
      <g>
       <use xlink:href="#mf433575167" x="113.040945" y="65.856108" style="stroke: #000000; stroke-width: 0.8"/>
      </g>
     </g>
     <g id="text_3">
      <!-- 3 -->
      <g transform="translate(109.859695 80.454546) scale(0.1 -0.1)">
       <defs>
        <path id="DejaVuSans-33" d="M 2597 2516 
Q 3050 2419 3304 2112 
Q 3559 1806 3559 1356 
Q 3559 666 3084 287 
Q 2609 -91 1734 -91 
Q 1441 -91 1130 -33 
Q 819 25 488 141 
L 488 750 
Q 750 597 1062 519 
Q 1375 441 1716 441 
Q 2309 441 2620 675 
Q 2931 909 2931 1356 
Q 2931 1769 2642 2001 
Q 2353 2234 1838 2234 
L 1294 2234 
L 1294 2753 
L 1863 2753 
Q 2328 2753 2575 2939 
Q 2822 3125 2822 3475 
Q 2822 3834 2567 4026 
Q 2313 4219 1838 4219 
Q 1578 4219 1281 4162 
Q 984 4106 628 3988 
L 628 4550 
Q 988 4650 1302 4700 
Q 1616 4750 1894 4750 
Q 2613 4750 3031 4423 
Q 3450 4097 3450 3541 
Q 3450 3153 3228 2886 
Q 3006 2619 2597 2516 
z
" transform="scale(0.015625)"/>
       </defs>
       <use xlink:href="#DejaVuSans-33"/>
      </g>
     </g>
    </g>
    <g id="text_4">
     <!-- Cluster -->
     <g transform="translate(66.589819 94.132671) scale(0.1 -0.1)">
      <defs>
       <path id="DejaVuSans-43" d="M 4122 4306 
L 4122 3641 
Q 3803 3938 3442 4084 
Q 3081 4231 2675 4231 
Q 1875 4231 1450 3742 
Q 1025 3253 1025 2328 
Q 1025 1406 1450 917 
Q 1875 428 2675 428 
Q 3081 428 3442 575 
Q 3803 722 4122 1019 
L 4122 359 
Q 3791 134 3420 21 
Q 3050 -91 2638 -91 
Q 1578 -91 968 557 
Q 359 1206 359 2328 
Q 359 3453 968 4101 
Q 1578 4750 2638 4750 
Q 3056 4750 3426 4639 
Q 3797 4528 4122 4306 
z
" transform="scale(0.015625)"/>
       <path id="DejaVuSans-6c" d="M 603 4863 
L 1178 4863 
L 1178 0 
L 603 0 
L 603 4863 
z
" transform="scale(0.015625)"/>
       <path id="DejaVuSans-75" d="M 544 1381 
L 544 3500 
L 1119 3500 
L 1119 1403 
Q 1119 906 1312 657 
Q 1506 409 1894 409 
Q 2359 409 2629 706 
Q 2900 1003 2900 1516 
L 2900 3500 
L 3475 3500 
L 3475 0 
L 2900 0 
L 2900 538 
Q 2691 219 2414 64 
Q 2138 -91 1772 -91 
Q 1169 -91 856 284 
Q 544 659 544 1381 
z
M 1991 3584 
L 1991 3584 
z
" transform="scale(0.015625)"/>
       <path id="DejaVuSans-73" d="M 2834 3397 
L 2834 2853 
Q 2591 2978 2328 3040 
Q 2066 3103 1784 3103 
Q 1356 3103 1142 2972 
Q 928 2841 928 2578 
Q 928 2378 1081 2264 
Q 1234 2150 1697 2047 
L 1894 2003 
Q 2506 1872 2764 1633 
Q 3022 1394 3022 966 
Q 3022 478 2636 193 
Q 2250 -91 1575 -91 
Q 1294 -91 989 -36 
Q 684 19 347 128 
L 347 722 
Q 666 556 975 473 
Q 1284 391 1588 391 
Q 1994 391 2212 530 
Q 2431 669 2431 922 
Q 2431 1156 2273 1281 
Q 2116 1406 1581 1522 
L 1381 1569 
Q 847 1681 609 1914 
Q 372 2147 372 2553 
Q 372 3047 722 3315 
Q 1072 3584 1716 3584 
Q 2034 3584 2315 3537 
Q 2597 3491 2834 3397 
z
" transform="scale(0.015625)"/>
       <path id="DejaVuSans-74" d="M 1172 4494 
L 1172 3500 
L 2356 3500 
L 2356 3053 
L 1172 3053 
L 1172 1153 
Q 1172 725 1289 603 
Q 1406 481 1766 481 
L 2356 481 
L 2356 0 
L 1766 0 
Q 1100 0 847 248 
Q 594 497 594 1153 
L 594 3053 
L 172 3053 
L 172 3500 
L 594 3500 
L 594 4494 
L 1172 4494 
z
" transform="scale(0.015625)"/>
       <path id="DejaVuSans-65" d="M 3597 1894 
L 3597 1613 
L 953 1613 
Q 991 1019 1311 708 
Q 1631 397 2203 397 
Q 2534 397 2845 478 
Q 3156 559 3463 722 
L 3463 178 
Q 3153 47 2828 -22 
Q 2503 -91 2169 -91 
Q 1331 -91 842 396 
Q 353 884 353 1716 
Q 353 2575 817 3079 
Q 1281 3584 2069 3584 
Q 2775 3584 3186 3129 
Q 3597 2675 3597 1894 
z
M 3022 2063 
Q 3016 2534 2758 2815 
Q 2500 3097 2075 3097 
Q 1594 3097 1305 2825 
Q 1016 2553 972 2059 
L 3022 2063 
z
" transform="scale(0.015625)"/>
       <path id="DejaVuSans-72" d="M 2631 2963 
Q 2534 3019 2420 3045 
Q 2306 3072 2169 3072 
Q 1681 3072 1420 2755 
Q 1159 2438 1159 1844 
L 1159 0 
L 581 0 
L 581 3500 
L 1159 3500 
L 1159 2956 
Q 1341 3275 1631 3429 
Q 1922 3584 2338 3584 
Q 2397 3584 2469 3576 
Q 2541 3569 2628 3553 
L 2631 2963 
z
" transform="scale(0.015625)"/>
      </defs>
      <use xlink:href="#DejaVuSans-43"/>
      <use xlink:href="#DejaVuSans-6c" x="69.824219"/>
      <use xlink:href="#DejaVuSans-75" x="97.607422"/>
      <use xlink:href="#DejaVuSans-73" x="160.986328"/>
      <use xlink:href="#DejaVuSans-74" x="213.085938"/>
      <use xlink:href="#DejaVuSans-65" x="252.294922"/>
      <use xlink:href="#DejaVuSans-72" x="313.818359"/>
     </g>
    </g>
   </g>
   <g id="matplotlib.axis_2">
    <g id="ytick_1">
     <g id="line2d_4">
      <defs>
       <path id="m75f19bc2de" d="M 0 0 
L -3.5 0 
" style="stroke: #000000; stroke-width: 0.8"/>
      </defs>
      <g>
       <use xlink:href="#m75f19bc2de" x="41.278365" y="51.266088" style="stroke: #000000; stroke-width: 0.8"/>
      </g>
     </g>
     <g id="text_5">
      <!-- $\mathdefault{10^{2}}$ -->
      <g transform="translate(16.678365 55.065307) scale(0.1 -0.1)">
       <defs>
        <path id="DejaVuSans-30" d="M 2034 4250 
Q 1547 4250 1301 3770 
Q 1056 3291 1056 2328 
Q 1056 1369 1301 889 
Q 1547 409 2034 409 
Q 2525 409 2770 889 
Q 3016 1369 3016 2328 
Q 3016 3291 2770 3770 
Q 2525 4250 2034 4250 
z
M 2034 4750 
Q 2819 4750 3233 4129 
Q 3647 3509 3647 2328 
Q 3647 1150 3233 529 
Q 2819 -91 2034 -91 
Q 1250 -91 836 529 
Q 422 1150 422 2328 
Q 422 3509 836 4129 
Q 1250 4750 2034 4750 
z
" transform="scale(0.015625)"/>
       </defs>
       <use xlink:href="#DejaVuSans-31" transform="translate(0 0.765625)"/>
       <use xlink:href="#DejaVuSans-30" transform="translate(63.623047 0.765625)"/>
       <use xlink:href="#DejaVuSans-32" transform="translate(128.203125 39.046875) scale(0.7)"/>
      </g>
     </g>
    </g>
    <g id="ytick_2">
     <g id="line2d_5">
      <g>
       <use xlink:href="#m75f19bc2de" x="41.278365" y="31.803999" style="stroke: #000000; stroke-width: 0.8"/>
      </g>
     </g>
     <g id="text_6">
      <!-- $\mathdefault{10^{3}}$ -->
      <g transform="translate(16.678365 35.603217) scale(0.1 -0.1)">
       <use xlink:href="#DejaVuSans-31" transform="translate(0 0.765625)"/>
       <use xlink:href="#DejaVuSans-30" transform="translate(63.623047 0.765625)"/>
       <use xlink:href="#DejaVuSans-33" transform="translate(128.203125 39.046875) scale(0.7)"/>
      </g>
     </g>
    </g>
    <g id="ytick_3">
     <g id="line2d_6">
      <g>
       <use xlink:href="#m75f19bc2de" x="41.278365" y="12.341909" style="stroke: #000000; stroke-width: 0.8"/>
      </g>
     </g>
     <g id="text_7">
      <!-- $\mathdefault{10^{4}}$ -->
      <g transform="translate(16.678365 16.141128) scale(0.1 -0.1)">
       <defs>
        <path id="DejaVuSans-34" d="M 2419 4116 
L 825 1625 
L 2419 1625 
L 2419 4116 
z
M 2253 4666 
L 3047 4666 
L 3047 1625 
L 3713 1625 
L 3713 1100 
L 3047 1100 
L 3047 0 
L 2419 0 
L 2419 1100 
L 313 1100 
L 313 1709 
L 2253 4666 
z
" transform="scale(0.015625)"/>
       </defs>
       <use xlink:href="#DejaVuSans-31" transform="translate(0 0.684375)"/>
       <use xlink:href="#DejaVuSans-30" transform="translate(63.623047 0.684375)"/>
       <use xlink:href="#DejaVuSans-34" transform="translate(128.203125 38.965625) scale(0.7)"/>
      </g>
     </g>
    </g>
    <g id="ytick_4">
     <g id="line2d_7">
      <defs>
       <path id="m54d47064e9" d="M 0 0 
L -2 0 
" style="stroke: #000000; stroke-width: 0.6"/>
      </defs>
      <g>
       <use xlink:href="#m54d47064e9" x="41.278365" y="64.869504" style="stroke: #000000; stroke-width: 0.6"/>
      </g>
     </g>
    </g>
    <g id="ytick_5">
     <g id="line2d_8">
      <g>
       <use xlink:href="#m54d47064e9" x="41.278365" y="61.442401" style="stroke: #000000; stroke-width: 0.6"/>
      </g>
     </g>
    </g>
    <g id="ytick_6">
     <g id="line2d_9">
      <g>
       <use xlink:href="#m54d47064e9" x="41.278365" y="59.010832" style="stroke: #000000; stroke-width: 0.6"/>
      </g>
     </g>
    </g>
    <g id="ytick_7">
     <g id="line2d_10">
      <g>
       <use xlink:href="#m54d47064e9" x="41.278365" y="57.12476" style="stroke: #000000; stroke-width: 0.6"/>
      </g>
     </g>
    </g>
    <g id="ytick_8">
     <g id="line2d_11">
      <g>
       <use xlink:href="#m54d47064e9" x="41.278365" y="55.583728" style="stroke: #000000; stroke-width: 0.6"/>
      </g>
     </g>
    </g>
    <g id="ytick_9">
     <g id="line2d_12">
      <g>
       <use xlink:href="#m54d47064e9" x="41.278365" y="54.280804" style="stroke: #000000; stroke-width: 0.6"/>
      </g>
     </g>
    </g>
    <g id="ytick_10">
     <g id="line2d_13">
      <g>
       <use xlink:href="#m54d47064e9" x="41.278365" y="53.152159" style="stroke: #000000; stroke-width: 0.6"/>
      </g>
     </g>
    </g>
    <g id="ytick_11">
     <g id="line2d_14">
      <g>
       <use xlink:href="#m54d47064e9" x="41.278365" y="52.156624" style="stroke: #000000; stroke-width: 0.6"/>
      </g>
     </g>
    </g>
    <g id="ytick_12">
     <g id="line2d_15">
      <g>
       <use xlink:href="#m54d47064e9" x="41.278365" y="45.407415" style="stroke: #000000; stroke-width: 0.6"/>
      </g>
     </g>
    </g>
    <g id="ytick_13">
     <g id="line2d_16">
      <g>
       <use xlink:href="#m54d47064e9" x="41.278365" y="41.980311" style="stroke: #000000; stroke-width: 0.6"/>
      </g>
     </g>
    </g>
    <g id="ytick_14">
     <g id="line2d_17">
      <g>
       <use xlink:href="#m54d47064e9" x="41.278365" y="39.548743" style="stroke: #000000; stroke-width: 0.6"/>
      </g>
     </g>
    </g>
    <g id="ytick_15">
     <g id="line2d_18">
      <g>
       <use xlink:href="#m54d47064e9" x="41.278365" y="37.662671" style="stroke: #000000; stroke-width: 0.6"/>
      </g>
     </g>
    </g>
    <g id="ytick_16">
     <g id="line2d_19">
      <g>
       <use xlink:href="#m54d47064e9" x="41.278365" y="36.121639" style="stroke: #000000; stroke-width: 0.6"/>
      </g>
     </g>
    </g>
    <g id="ytick_17">
     <g id="line2d_20">
      <g>
       <use xlink:href="#m54d47064e9" x="41.278365" y="34.818714" style="stroke: #000000; stroke-width: 0.6"/>
      </g>
     </g>
    </g>
    <g id="ytick_18">
     <g id="line2d_21">
      <g>
       <use xlink:href="#m54d47064e9" x="41.278365" y="33.69007" style="stroke: #000000; stroke-width: 0.6"/>
      </g>
     </g>
    </g>
    <g id="ytick_19">
     <g id="line2d_22">
      <g>
       <use xlink:href="#m54d47064e9" x="41.278365" y="32.694535" style="stroke: #000000; stroke-width: 0.6"/>
      </g>
     </g>
    </g>
    <g id="ytick_20">
     <g id="line2d_23">
      <g>
       <use xlink:href="#m54d47064e9" x="41.278365" y="25.945326" style="stroke: #000000; stroke-width: 0.6"/>
      </g>
     </g>
    </g>
    <g id="ytick_21">
     <g id="line2d_24">
      <g>
       <use xlink:href="#m54d47064e9" x="41.278365" y="22.518222" style="stroke: #000000; stroke-width: 0.6"/>
      </g>
     </g>
    </g>
    <g id="ytick_22">
     <g id="line2d_25">
      <g>
       <use xlink:href="#m54d47064e9" x="41.278365" y="20.086653" style="stroke: #000000; stroke-width: 0.6"/>
      </g>
     </g>
    </g>
    <g id="ytick_23">
     <g id="line2d_26">
      <g>
       <use xlink:href="#m54d47064e9" x="41.278365" y="18.200582" style="stroke: #000000; stroke-width: 0.6"/>
      </g>
     </g>
    </g>
    <g id="ytick_24">
     <g id="line2d_27">
      <g>
       <use xlink:href="#m54d47064e9" x="41.278365" y="16.65955" style="stroke: #000000; stroke-width: 0.6"/>
      </g>
     </g>
    </g>
    <g id="ytick_25">
     <g id="line2d_28">
      <g>
       <use xlink:href="#m54d47064e9" x="41.278365" y="15.356625" style="stroke: #000000; stroke-width: 0.6"/>
      </g>
     </g>
    </g>
    <g id="ytick_26">
     <g id="line2d_29">
      <g>
       <use xlink:href="#m54d47064e9" x="41.278365" y="14.227981" style="stroke: #000000; stroke-width: 0.6"/>
      </g>
     </g>
    </g>
    <g id="ytick_27">
     <g id="line2d_30">
      <g>
       <use xlink:href="#m54d47064e9" x="41.278365" y="13.232446" style="stroke: #000000; stroke-width: 0.6"/>
      </g>
     </g>
    </g>
    <g id="ytick_28">
     <g id="line2d_31">
      <g>
       <use xlink:href="#m54d47064e9" x="41.278365" y="6.483237" style="stroke: #000000; stroke-width: 0.6"/>
      </g>
     </g>
    </g>
    <g id="ytick_29">
     <g id="line2d_32">
      <g>
       <use xlink:href="#m54d47064e9" x="41.278365" y="3.056133" style="stroke: #000000; stroke-width: 0.6"/>
      </g>
     </g>
    </g>
    <g id="text_8">
     <!-- Duration [ms] -->
     <g transform="translate(10.598678 69.109424) rotate(-90) scale(0.1 -0.1)">
      <defs>
       <path id="DejaVuSans-44" d="M 1259 4147 
L 1259 519 
L 2022 519 
Q 2988 519 3436 956 
Q 3884 1394 3884 2338 
Q 3884 3275 3436 3711 
Q 2988 4147 2022 4147 
L 1259 4147 
z
M 628 4666 
L 1925 4666 
Q 3281 4666 3915 4102 
Q 4550 3538 4550 2338 
Q 4550 1131 3912 565 
Q 3275 0 1925 0 
L 628 0 
L 628 4666 
z
" transform="scale(0.015625)"/>
       <path id="DejaVuSans-61" d="M 2194 1759 
Q 1497 1759 1228 1600 
Q 959 1441 959 1056 
Q 959 750 1161 570 
Q 1363 391 1709 391 
Q 2188 391 2477 730 
Q 2766 1069 2766 1631 
L 2766 1759 
L 2194 1759 
z
M 3341 1997 
L 3341 0 
L 2766 0 
L 2766 531 
Q 2569 213 2275 61 
Q 1981 -91 1556 -91 
Q 1019 -91 701 211 
Q 384 513 384 1019 
Q 384 1609 779 1909 
Q 1175 2209 1959 2209 
L 2766 2209 
L 2766 2266 
Q 2766 2663 2505 2880 
Q 2244 3097 1772 3097 
Q 1472 3097 1187 3025 
Q 903 2953 641 2809 
L 641 3341 
Q 956 3463 1253 3523 
Q 1550 3584 1831 3584 
Q 2591 3584 2966 3190 
Q 3341 2797 3341 1997 
z
" transform="scale(0.015625)"/>
       <path id="DejaVuSans-69" d="M 603 3500 
L 1178 3500 
L 1178 0 
L 603 0 
L 603 3500 
z
M 603 4863 
L 1178 4863 
L 1178 4134 
L 603 4134 
L 603 4863 
z
" transform="scale(0.015625)"/>
       <path id="DejaVuSans-6f" d="M 1959 3097 
Q 1497 3097 1228 2736 
Q 959 2375 959 1747 
Q 959 1119 1226 758 
Q 1494 397 1959 397 
Q 2419 397 2687 759 
Q 2956 1122 2956 1747 
Q 2956 2369 2687 2733 
Q 2419 3097 1959 3097 
z
M 1959 3584 
Q 2709 3584 3137 3096 
Q 3566 2609 3566 1747 
Q 3566 888 3137 398 
Q 2709 -91 1959 -91 
Q 1206 -91 779 398 
Q 353 888 353 1747 
Q 353 2609 779 3096 
Q 1206 3584 1959 3584 
z
" transform="scale(0.015625)"/>
       <path id="DejaVuSans-6e" d="M 3513 2113 
L 3513 0 
L 2938 0 
L 2938 2094 
Q 2938 2591 2744 2837 
Q 2550 3084 2163 3084 
Q 1697 3084 1428 2787 
Q 1159 2491 1159 1978 
L 1159 0 
L 581 0 
L 581 3500 
L 1159 3500 
L 1159 2956 
Q 1366 3272 1645 3428 
Q 1925 3584 2291 3584 
Q 2894 3584 3203 3211 
Q 3513 2838 3513 2113 
z
" transform="scale(0.015625)"/>
       <path id="DejaVuSans-20" transform="scale(0.015625)"/>
       <path id="DejaVuSans-5b" d="M 550 4863 
L 1875 4863 
L 1875 4416 
L 1125 4416 
L 1125 -397 
L 1875 -397 
L 1875 -844 
L 550 -844 
L 550 4863 
z
" transform="scale(0.015625)"/>
       <path id="DejaVuSans-6d" d="M 3328 2828 
Q 3544 3216 3844 3400 
Q 4144 3584 4550 3584 
Q 5097 3584 5394 3201 
Q 5691 2819 5691 2113 
L 5691 0 
L 5113 0 
L 5113 2094 
Q 5113 2597 4934 2840 
Q 4756 3084 4391 3084 
Q 3944 3084 3684 2787 
Q 3425 2491 3425 1978 
L 3425 0 
L 2847 0 
L 2847 2094 
Q 2847 2600 2669 2842 
Q 2491 3084 2119 3084 
Q 1678 3084 1418 2786 
Q 1159 2488 1159 1978 
L 1159 0 
L 581 0 
L 581 3500 
L 1159 3500 
L 1159 2956 
Q 1356 3278 1631 3431 
Q 1906 3584 2284 3584 
Q 2666 3584 2933 3390 
Q 3200 3197 3328 2828 
z
" transform="scale(0.015625)"/>
       <path id="DejaVuSans-5d" d="M 1947 4863 
L 1947 -844 
L 622 -844 
L 622 -397 
L 1369 -397 
L 1369 4416 
L 622 4416 
L 622 4863 
L 1947 4863 
z
" transform="scale(0.015625)"/>
      </defs>
      <use xlink:href="#DejaVuSans-44"/>
      <use xlink:href="#DejaVuSans-75" x="77.001953"/>
      <use xlink:href="#DejaVuSans-72" x="140.380859"/>
      <use xlink:href="#DejaVuSans-61" x="181.494141"/>
      <use xlink:href="#DejaVuSans-74" x="242.773438"/>
      <use xlink:href="#DejaVuSans-69" x="281.982422"/>
      <use xlink:href="#DejaVuSans-6f" x="309.765625"/>
      <use xlink:href="#DejaVuSans-6e" x="370.947266"/>
      <use xlink:href="#DejaVuSans-20" x="434.326172"/>
      <use xlink:href="#DejaVuSans-5b" x="466.113281"/>
      <use xlink:href="#DejaVuSans-6d" x="505.126953"/>
      <use xlink:href="#DejaVuSans-73" x="602.539062"/>
      <use xlink:href="#DejaVuSans-5d" x="654.638672"/>
     </g>
    </g>
   </g>
   <g id="line2d_33">
    <path d="M 55.630881 58.96027 
L 55.630881 30.682288 
" clip-path="url(#pdf55fce813)" style="fill: none; stroke: #484848; stroke-width: 1.875; stroke-linecap: square"/>
   </g>
   <g id="line2d_34">
    <path d="M 55.630881 53.567929 
L 55.630881 44.337081 
" clip-path="url(#pdf55fce813)" style="fill: none; stroke: #484848; stroke-width: 5.625; stroke-linecap: square"/>
   </g>
   <g id="line2d_35">
    <path d="M 55.630881 50.609333 
" clip-path="url(#pdf55fce813)" style="fill: none; stroke: #484848; stroke-width: 1.5; stroke-linecap: square"/>
    <defs>
     <path id="m44b3e9d638" d="M 2.34375 0 
L -2.34375 -0 
" style="stroke: #ffffff; stroke-width: 1.125"/>
    </defs>
    <g clip-path="url(#pdf55fce813)">
     <use xlink:href="#m44b3e9d638" x="55.630881" y="50.609333" style="fill: #ffffff; stroke: #ffffff; stroke-width: 1.125"/>
    </g>
   </g>
   <g id="line2d_36">
    <path d="M 84.335913 48.24056 
L 84.335913 13.945626 
" clip-path="url(#pdf55fce813)" style="fill: none; stroke: #484848; stroke-width: 1.875; stroke-linecap: square"/>
   </g>
   <g id="line2d_37">
    <path d="M 84.335913 35.62382 
L 84.335913 26.515201 
" clip-path="url(#pdf55fce813)" style="fill: none; stroke: #484848; stroke-width: 5.625; stroke-linecap: square"/>
   </g>
   <g id="line2d_38">
    <path d="M 84.335913 33.600111 
" clip-path="url(#pdf55fce813)" style="fill: none; stroke: #484848; stroke-width: 1.5; stroke-linecap: square"/>
    <g clip-path="url(#pdf55fce813)">
     <use xlink:href="#m44b3e9d638" x="84.335913" y="33.600111" style="fill: #ffffff; stroke: #ffffff; stroke-width: 1.125"/>
    </g>
   </g>
   <g id="line2d_39">
    <path d="M 113.040945 58.884989 
L 113.040945 15.323653 
" clip-path="url(#pdf55fce813)" style="fill: none; stroke: #484848; stroke-width: 1.875; stroke-linecap: square"/>
   </g>
   <g id="line2d_40">
    <path d="M 113.040945 49.543191 
L 113.040945 35.777817 
" clip-path="url(#pdf55fce813)" style="fill: none; stroke: #484848; stroke-width: 5.625; stroke-linecap: square"/>
   </g>
   <g id="line2d_41">
    <path d="M 113.040945 40.204041 
" clip-path="url(#pdf55fce813)" style="fill: none; stroke: #484848; stroke-width: 1.5; stroke-linecap: square"/>
    <g clip-path="url(#pdf55fce813)">
     <use xlink:href="#m44b3e9d638" x="113.040945" y="40.204041" style="fill: #ffffff; stroke: #ffffff; stroke-width: 1.125"/>
    </g>
   </g>
   <g id="patch_3">
    <path d="M 41.278365 65.856108 
L 41.278365 3.00024 
" style="fill: none; stroke: #000000; stroke-width: 0.8; stroke-linejoin: miter; stroke-linecap: square"/>
   </g>
   <g id="patch_4">
    <path d="M 41.278365 65.856108 
L 127.393461 65.856108 
" style="fill: none; stroke: #000000; stroke-width: 0.8; stroke-linejoin: miter; stroke-linecap: square"/>
   </g>
  </g>
 </g>
 <defs>
  <clipPath id="pdf55fce813">
   <rect x="41.278365" y="3.00024" width="86.115096" height="62.855868"/>
  </clipPath>
 </defs>
</svg>
